<svg xmlns="http://www.w3.org/2000/svg" width="553.146" height="583.592" viewBox="0 0 553.146 583.592">
  <g id="Outer_space-cuate_2_" data-name="Outer space-cuate (2)" transform="translate(-43.332 -29.609)">
    <g id="freepik--background-complete--inject-50" transform="translate(43.332 29.609)">
      <circle id="Elipse_9426" data-name="Elipse 9426" cx="26.321" cy="26.321" r="26.321" transform="translate(274.311 379.705)" fill="#ebebeb"/>
      <path id="Caminho_83503" data-name="Caminho 83503" d="M277.851,321.37a5.955,5.955,0,0,1-.977,3.573,7.172,7.172,0,0,1-2.864,2.529,5.179,5.179,0,0,1-3.867.321,5.353,5.353,0,0,1-2.944-2.261,7.8,7.8,0,0,0,3.158,1.338,4.389,4.389,0,0,0,1.619,0,4.753,4.753,0,0,0,1.525-.5c.254-.12.5-.254.736-.388a4.966,4.966,0,0,0,.7-.482,8.233,8.233,0,0,0,1.218-1.151,9.115,9.115,0,0,0,1.7-2.984Z" transform="translate(32.362 69.04)" fill="#c7c7c7"/>
      <path id="Caminho_83504" data-name="Caminho 83504" d="M268.088,323.688a3.827,3.827,0,0,1,.549-2.516,4.857,4.857,0,0,1,1.98-1.806,3.653,3.653,0,0,1,2.757-.2,3.52,3.52,0,0,1,1.967,1.686,5.993,5.993,0,0,0-2.181-.816,3.667,3.667,0,0,0-2.034.361,6.289,6.289,0,0,0-3.038,3.292Z" transform="translate(32.651 68.234)" fill="#c7c7c7"/>
      <path id="Caminho_83505" data-name="Caminho 83505" d="M269.582,342.28a3.613,3.613,0,0,1,.067,2.516,4.5,4.5,0,0,1-1.526,2.128,3.439,3.439,0,0,1-2.6.7,3.493,3.493,0,0,1-2.208-1.2,6.2,6.2,0,0,0,2.248.308,3.426,3.426,0,0,0,1.86-.709,5.258,5.258,0,0,0,1.338-1.579A6.516,6.516,0,0,0,269.582,342.28Z" transform="translate(31.05 76.11)" fill="#c7c7c7"/>
      <path id="Caminho_83506" data-name="Caminho 83506" d="M263.99,345.485a2.3,2.3,0,0,1-.174-1.766,2.944,2.944,0,0,1,1.057-1.539,2.409,2.409,0,0,1,1.887-.482,2.275,2.275,0,0,1,1.485.977,5.111,5.111,0,0,0-1.539-.067,2.288,2.288,0,0,0-1.137.482,4.536,4.536,0,0,0-1.579,2.4Z" transform="translate(31.183 75.902)" fill="#c7c7c7"/>
      <path id="Caminho_83507" data-name="Caminho 83507" d="M261.816,324.59a2.355,2.355,0,0,1,.749,1.686,2.6,2.6,0,0,1-.749,1.86,2.261,2.261,0,0,1-1.927.656,2.676,2.676,0,0,1-1.659-.79,8.873,8.873,0,0,0,1.646-.107,2.087,2.087,0,0,0,1.124-.562,2.676,2.676,0,0,0,.669-1.151,4.925,4.925,0,0,0,.147-1.592Z" transform="translate(29.329 70.129)" fill="#c7c7c7"/>
      <path id="Caminho_83508" data-name="Caminho 83508" d="M258.636,327.254a1.512,1.512,0,0,1-.656-1.164,1.793,1.793,0,0,1,.522-1.338,1.606,1.606,0,0,1,1.432-.455,1.686,1.686,0,0,1,1.137.682,7.812,7.812,0,0,0-1.111.214,1.338,1.338,0,0,0-.642.375,1.887,1.887,0,0,0-.442.669A3.854,3.854,0,0,0,258.636,327.254Z" transform="translate(29.244 70.021)" fill="#c7c7c7"/>
      <path id="Caminho_83509" data-name="Caminho 83509" d="M275.742,345.976a2.328,2.328,0,0,1-1.459,1.137,2.529,2.529,0,0,1-1.994-.227,2.3,2.3,0,0,1-1.124-1.7,2.8,2.8,0,0,1,.375-1.806,7.419,7.419,0,0,0,.508,1.566,1.927,1.927,0,0,0,.816.95,2.569,2.569,0,0,0,1.271.375,4.79,4.79,0,0,0,1.606-.294Z" transform="translate(33.694 76.482)" fill="#c7c7c7"/>
      <path id="Caminho_83510" data-name="Caminho 83510" d="M272.13,343.686a1.5,1.5,0,0,1,.963-.923,1.793,1.793,0,0,1,1.472.161,1.646,1.646,0,0,1,.8,1.338,1.713,1.713,0,0,1-.388,1.271,11.23,11.23,0,0,0-.482-1.03,1.432,1.432,0,0,0-.522-.535,2.353,2.353,0,0,0-.749-.268A3.933,3.933,0,0,0,272.13,343.686Z" transform="translate(34.028 76.243)" fill="#c7c7c7"/>
      <path id="Caminho_83511" data-name="Caminho 83511" d="M282.571,331.48a2.435,2.435,0,0,1-.562,1.766,2.677,2.677,0,0,1-1.793.9,2.342,2.342,0,0,1-1.887-.789,2.784,2.784,0,0,1-.709-1.7,8.106,8.106,0,0,0,1.338,1,2.061,2.061,0,0,0,1.218.335,2.676,2.676,0,0,0,1.258-.415,4.952,4.952,0,0,0,1.137-1.1Z" transform="translate(35.885 72.458)" fill="#c7c7c7"/>
      <path id="Caminho_83512" data-name="Caminho 83512" d="M278.244,331.8a1.472,1.472,0,0,1,.281-1.338,1.766,1.766,0,0,1,1.338-.682,1.619,1.619,0,0,1,1.338.615,1.673,1.673,0,0,1,.388,1.258,6.753,6.753,0,0,0-.977-.575,1.338,1.338,0,0,0-.723-.147,1.966,1.966,0,0,0-.776.2A4.366,4.366,0,0,0,278.244,331.8Z" transform="translate(36.077 71.883)" fill="#c7c7c7"/>
      <path id="Caminho_83513" data-name="Caminho 83513" d="M256.511,335.94a2.355,2.355,0,0,1-.562,1.753,2.556,2.556,0,0,1-1.793.9,2.3,2.3,0,0,1-1.887-.79,2.8,2.8,0,0,1-.709-1.686,8.748,8.748,0,0,0,1.338,1,2.034,2.034,0,0,0,1.218.321,2.676,2.676,0,0,0,1.258-.4A4.952,4.952,0,0,0,256.511,335.94Z" transform="translate(27.073 73.966)" fill="#c7c7c7"/>
      <path id="Caminho_83514" data-name="Caminho 83514" d="M252.183,336.251a1.5,1.5,0,0,1,.281-1.338,1.82,1.82,0,0,1,1.338-.682,1.633,1.633,0,0,1,1.338.6,1.7,1.7,0,0,1,.388,1.258,8.034,8.034,0,0,0-.977-.562,1.339,1.339,0,0,0-.723-.161,2.088,2.088,0,0,0-.763.2A4.015,4.015,0,0,0,252.183,336.251Z" transform="translate(27.266 73.388)" fill="#c7c7c7"/>
      <g id="Grupo_12" data-name="Grupo 12" opacity="0.4">
        <path id="Caminho_83515" data-name="Caminho 83515" d="M49.434,337.792a78.013,78.013,0,0,0,5.714,29.639c3.867,9.273,9.982,17.489,17.9,22.654a39.1,39.1,0,0,0,6.1,3.305,35.714,35.714,0,0,0,6.476,1.98,34.884,34.884,0,0,0,13.114.187c8.617-1.485,16.566-5.754,23.6-11.374.428-.361.91-.723,1.338-1.057l.99-.95c.642-.669,1.338-1.338,1.9-2.047a37.226,37.226,0,0,0,3.492-4.67,69.651,69.651,0,0,0,5.821-11.227,194.466,194.466,0,0,0,8.524-26.535c4.777-18.734,8.577-38.578,13.1-58.73q1.686-7.574,3.6-15.2c1.231-5.1,2.6-10.21,4.014-15.362a216.3,216.3,0,0,1,11.08-31.339c1.231-2.676,2.583-5.352,4.188-8.122.789-1.338,1.686-2.77,2.676-4.135s1.954-2.676,3.011-3.867a66.319,66.319,0,0,1,13.93-12.23c9.822-6.6,19.911-10.7,29.6-14.88s19.242-8.029,28.274-12.645a133.034,133.034,0,0,0,25.063-16.338,87.271,87.271,0,0,0,18.827-22.066c4.924-8.283,8.51-17.315,9.541-26.107a43.048,43.048,0,0,0-.174-12.618,29.265,29.265,0,0,0-4.014-10.518,24.434,24.434,0,0,0-16.164-10.959,33.453,33.453,0,0,0-10.237-.4,45.416,45.416,0,0,0-10.7,2.676c-.9.335-1.78.709-2.676,1.084l-3.158,1.338c-2.087.937-4.162,1.914-6.182,2.957-4.014,2.074-8.029,4.309-11.923,6.811-7.8,4.938-15.469,10.919-24.006,17.4a230.587,230.587,0,0,1-28.261,18.613,182.225,182.225,0,0,1-32.208,13.421c-1.338.455-2.757.816-4.135,1.218l-3.707,1.057c-2.047.6-4.121,1.258-6.182,1.967-4.108,1.445-8.176,3.091-12.137,4.924-15.83,7.386-29.666,17.743-39.515,31.2A102.151,102.151,0,0,0,83.4,189.1a104.6,104.6,0,0,0-4.4,12.712,132.084,132.084,0,0,0-3.131,13.622c-.8,4.67-1.432,9.461-1.82,14.331-.2,2.288-.348,5.272-.535,8.029s-.468,5.5-.789,8.229a232.539,232.539,0,0,1-6.088,31.994c-2.676,10.4-5.995,20.46-9.367,30.348-1.7,4.951-3.4,9.862-4.911,14.719a55.894,55.894,0,0,0-2.917,14.706Zm-4.014,0a42.591,42.591,0,0,1,.83-8.149c.468-2.676,1.084-5.205,1.686-7.748,1.2-5.1,2.5-10.13,3.573-15.188s2.021-10.1,2.676-15.174,1.084-10.156,1.338-15.228A150.632,150.632,0,0,0,53.6,246.265c-.375-2.462-.856-4.9-1.338-7.32s-1.057-4.67-1.619-7.547a153.1,153.1,0,0,1-2.5-16.78,123.427,123.427,0,0,1,1.619-35.085,108,108,0,0,1,13.006-34.269A119.868,119.868,0,0,1,86.54,116.9a135.457,135.457,0,0,1,30.335-20.072,140.974,140.974,0,0,1,16.646-6.878c2.837-1,5.727-1.873,8.671-2.676l7.146-1.913a160.669,160.669,0,0,0,25.571-9.367,204.112,204.112,0,0,0,24.715-13.983c8.5-5.352,17.69-11.6,27.886-17.021a164.582,164.582,0,0,1,15.75-7.427c2.676-1.111,5.352-2.114,8.163-3.078l4.121-1.338c1.566-.468,3.145-.923,4.737-1.338a71.3,71.3,0,0,1,19.991-2.154,60.081,60.081,0,0,1,20.38,4.255,53.043,53.043,0,0,1,17.7,11.7A49.51,49.51,0,0,1,329.7,63.17a53.351,53.351,0,0,1,3.385,19.523,63.9,63.9,0,0,1-2.89,18.292A99.1,99.1,0,0,1,314.073,131.2a122.38,122.38,0,0,1-10.959,12.525,140.938,140.938,0,0,1-12.378,10.839c-17.248,13.381-36.838,22.266-54.542,32.61-8.832,5.112-17.248,10.7-23.631,17.155a44.158,44.158,0,0,0-7.547,10.17q-.682,1.338-1.244,2.676c-.361.87-.7,1.753-1.03,2.676-.656,1.927-1.258,4.014-1.806,6.236-1.084,4.4-1.927,9.153-2.676,14s-1.418,9.808-2.1,14.813l-1.98,15.174c-.669,5.1-1.338,10.237-2.141,15.4-3.158,20.607-7.172,41.629-14.719,62.557A145.922,145.922,0,0,1,162.2,378.979c-1.7,2.489-3.466,4.951-5.433,7.36a69.227,69.227,0,0,1-6.4,6.972,63.123,63.123,0,0,1-7.574,6.249,46.681,46.681,0,0,1-4.255,2.676l-2.248,1.2c-.723.375-1.338.642-2.047.963a83.283,83.283,0,0,1-16.967,5.754A63.4,63.4,0,0,1,99.145,411.5a52.362,52.362,0,0,1-17.5-4.362,48.376,48.376,0,0,1-7.734-4.322,52.443,52.443,0,0,1-6.691-5.433,67.187,67.187,0,0,1-16.874-28.1A108.655,108.655,0,0,1,45.42,337.9Z" transform="translate(-42.626 -29.609)" fill="#ebebeb"/>
        <path id="Caminho_83516" data-name="Caminho 83516" d="M188.708,331.273a135.431,135.431,0,0,0,12.244-33.453c2.8-11.6,4.576-23.444,6.316-35.42.923-5.981,1.753-12.043,2.85-18.1a163.711,163.711,0,0,1,4.148-18.479,81.985,81.985,0,0,1,7.895-18.734,51.745,51.745,0,0,1,15.79-16.807c1.726-1.137,3.586-2.087,5.352-3.1a42.719,42.719,0,0,1,5.781-2.422,52.631,52.631,0,0,1,5.968-1.713c1.954-.508,4.014-.736,6.008-1.07a79.845,79.845,0,0,1,23.136.308,93.05,93.05,0,0,1,21.838,6.289,129.25,129.25,0,0,1,18.854,10.076,269.689,269.689,0,0,1,30.964,23.912l13.7,12.043c2.235,1.967,4.5,3.84,6.691,5.727l3.332,2.8,3.332,2.676a165.053,165.053,0,0,0,13.488,9.728,92.811,92.811,0,0,0,13.863,7.467,94.566,94.566,0,0,0,15.843,4.9c5.647,1.338,11.535,2.328,17.569,3.211,12.043,1.78,24.621,2.9,37.347,4.376l9.568,1.191c3.225.468,6.423.95,9.661,1.539a130.413,130.413,0,0,1,19.376,4.79,65.209,65.209,0,0,1,18.466,9.434,46.74,46.74,0,0,1,13.542,16.057,52.62,52.62,0,0,1,3.72,9.527l1.2,4.857c.334,1.606.549,3.158.83,4.75a106.037,106.037,0,0,1,1.084,19.229,100.2,100.2,0,0,1-2.837,19.189c-.428,1.566-.749,3.171-1.258,4.71l-1.5,4.643c-1.151,3.038-2.315,6.088-3.693,9.032a132.059,132.059,0,0,1-21.53,32.583A166.981,166.981,0,0,1,513.9,430.949c-4.79,4.456-9.9,8.51-15.094,12.458-2.676,1.9-5.245,3.894-7.962,5.687l-4.014,2.757-4.108,2.676q-8.283,5.192-16.914,9.768c-2.877,1.512-5.781,2.971-8.684,4.443s-5.874,2.783-8.832,4.108-5.928,2.676-8.939,3.867-5.995,2.462-9.046,3.573l-17.4,6.5c-2.837,1.057-5.62,2.195-8.417,3.292l-4.2,1.659-4.162,1.726a585.911,585.911,0,0,0-64.39,31.339c-10.451,5.9-20.808,12.043-32.048,18.252-5.607,3.145-11.548,6.2-18.051,9.1a119.848,119.848,0,0,1-21.41,7.306,94.129,94.129,0,0,1-24.086,2.422,108.869,108.869,0,0,1-22.842-3.144c-3.64-.789-7.025-1.847-10.464-2.85-1.7-.535-3.332-1.124-4.991-1.673s-3.292-1.111-5-1.82l-5.058-2.034-2.516-1.044-2.5-1.218a98.7,98.7,0,0,1-9.862-5.272c-1.606-.99-3.211-1.954-4.8-2.984l-4.63-3.412-2.275-1.726c-.763-.589-1.459-1.271-2.195-1.914l-4.282-3.907c-1.338-1.338-2.676-2.89-3.934-4.322l-1.927-2.195c-.616-.749-1.164-1.552-1.753-2.342-1.137-1.579-2.288-3.145-3.385-4.737s-1.94-3.345-2.877-5.031a74.171,74.171,0,0,1-7.427-21.062l-.549-2.676c-.147-.9-.241-1.78-.348-2.676-.214-1.766-.442-3.533-.589-5.352a103.318,103.318,0,0,1-.067-10.37,117.347,117.347,0,0,1,2.6-19.777,170.291,170.291,0,0,1,5.245-18.493A299.866,299.866,0,0,1,154.252,395.5c1.338-2.743,2.676-5.526,4.121-8.229s2.676-5.46,4.188-8.149,2.864-5.352,4.309-8.029l4.322-8.029Zm3.559,1.82c-5.727,10.6-11.053,21.41-15.79,32.449l-1.766,4.135-1.659,4.175c-1.137,2.77-2.141,5.593-3.158,8.4-2.074,5.607-3.867,11.307-5.526,17.021a194.3,194.3,0,0,0-6.8,34.537,143.655,143.655,0,0,0-.763,17.034,101.029,101.029,0,0,0,1.673,16.218,76.649,76.649,0,0,0,1.766,7.587l1.218,3.573c.214.589.388,1.178.6,1.753l.763,1.686a50.4,50.4,0,0,0,7.159,12.043c.736.883,1.472,1.74,2.154,2.676l2.409,2.409c.4.4.776.83,1.191,1.2l1.338,1.084c.9.709,1.726,1.472,2.676,2.168l2.877,1.98c.482.334.923.7,1.432.99l1.566.9,3.091,1.806,3.332,1.592a104.364,104.364,0,0,0,14.278,5.526c1.2.428,2.556.79,3.894,1.151s2.676.763,4.014,1.084c2.609.575,5.232,1.271,7.748,1.659a71.916,71.916,0,0,0,14.4,1.338,56.024,56.024,0,0,0,13.087-1.753c8.658-2.208,18.319-6.918,28.8-12.525,5.232-2.77,10.571-5.714,16.057-8.7s11.093-5.888,16.726-8.8a545.059,545.059,0,0,1,70.8-30.014l4.469-1.579,4.563-1.5c3.038-.99,6.075-2.021,9.126-2.957L417.874,448c5.687-1.753,11.32-3.613,16.927-5.526l8.336-3.011c2.757-1.057,5.513-2.1,8.256-3.185,5.419-2.248,10.892-4.456,16.164-6.972l4.014-1.847,3.921-1.94c2.676-1.258,5.152-2.676,7.734-4.014a178.039,178.039,0,0,0,28.582-19.3A121.16,121.16,0,0,0,524,390.391a88.5,88.5,0,0,0,10.049-13.381,75.59,75.59,0,0,0,10.959-31.191,77.2,77.2,0,0,0-.08-16.767c-.2-1.338-.335-2.81-.575-4.175l-.83-4.014a42.05,42.05,0,0,0-2.783-7.413,31.687,31.687,0,0,0-10.009-11.815,46.835,46.835,0,0,0-14.987-6.865,99.71,99.71,0,0,0-17.4-2.944c-5.968-.5-12.043-.669-18.2-.616-12.284.067-24.809.83-37.721,1.1-6.477.094-13.06,0-19.831-.4a123.521,123.521,0,0,1-20.861-2.971c-14.6-3.573-27.177-10.116-38.564-17.4-22.614-14.639-40.424-32.115-58.516-44.974-9.006-6.41-17.917-11.521-27.1-14.331a57.394,57.394,0,0,0-14.211-2.462,28.1,28.1,0,0,0-23.524,9.367,62.758,62.758,0,0,0-9.273,13.06,151.2,151.2,0,0,0-7.32,15.616c-2.154,5.5-4.2,11.133-6.062,16.833-3.827,11.4-7.186,23.056-11.026,34.577a213.854,213.854,0,0,1-13.849,33.868Z" transform="translate(-13.431 21.67)" fill="#ebebeb"/>
        <path id="Caminho_83517" data-name="Caminho 83517" d="M510.786,105.806a86.806,86.806,0,0,1-5.767,10.424c-.99,1.606-2.034,3.118-3.078,4.643s-2.141,2.957-3.238,4.362c-2.168,2.864-4.443,5.5-6.691,8.136-9.179,10.37-19.175,19.269-28.97,28.1l-3.466,3.145-1.525,1.338-1.485,1.566c-1,1-1.887,2.154-2.823,3.252s-1.766,2.355-2.676,3.586a40.525,40.525,0,0,0-2.462,3.827c-.776,1.338-1.566,2.676-2.3,4.014-1.432,2.676-2.89,5.58-4.162,8.5-5.352,11.7-9.367,24.26-15.535,36.852a70.077,70.077,0,0,1-12.672,18.2,51.887,51.887,0,0,1-9.367,7.44,56.048,56.048,0,0,1-5.353,2.89c-.923.428-1.847.883-2.783,1.258l-2.837,1.057a69.329,69.329,0,0,1-11.588,2.917c-1.98.361-4.121.468-6.222.656s-4.148,0-6.249,0a56.721,56.721,0,0,1-6.142-.589,30.151,30.151,0,0,1-2.984-.509l-2.971-.6-1.485-.321-1.432-.415-2.864-.856a48.966,48.966,0,0,1-5.567-1.967,90.737,90.737,0,0,1-19.978-11.08,110.045,110.045,0,0,1-16.365-14.907,107.774,107.774,0,0,1-12.685-17.7c-.9-1.579-1.753-3.171-2.6-4.75s-1.552-3.278-2.315-4.911-1.459-3.292-2.1-4.978-1.338-3.332-1.873-5.071a133.094,133.094,0,0,1-5.245-20.808,131.614,131.614,0,0,1-1.927-21.008,109.033,109.033,0,0,1,1.552-20.54,69.433,69.433,0,0,1,6.316-19.269,45.5,45.5,0,0,1,13.381-15.629,76.81,76.81,0,0,1,18.52-9.755,204.811,204.811,0,0,1,40.612-10.143c6.838-1.044,13.635-1.74,20.366-2.168a11.468,11.468,0,0,0,1.94-.254l1.566-.281c1.07-.321,2.087-.415,3.145-.789l1.552-.442c.522-.187,1.044-.4,1.566-.549,1.044-.281,2.141-.83,3.2-1.164A126.093,126.093,0,0,0,408.8,63.722l7.935-4.456,4.242-2.4,4.55-2.4c3.024-1.659,6.41-3.252,9.889-4.831a97.055,97.055,0,0,1,11.615-4.215,66.384,66.384,0,0,1,13.689-2.489,55.733,55.733,0,0,1,15.134.91l1.9.361,1.847.5c1.218.348,2.462.682,3.68,1.07a60.22,60.22,0,0,1,6.838,2.89l3.225,1.673,2.957,1.833a64.643,64.643,0,0,1,5.526,4.014c.468.348.83.616,1.338,1.057s1.338,1.178,2.021,1.793a31.529,31.529,0,0,1,3.814,4.108c.281.361.589.736.87,1.124l.816,1.244c.522.843,1.017,1.673,1.512,2.529a38.889,38.889,0,0,1,2.261,5.352c.268.91.508,1.806.736,2.676.12.455.228.923.308,1.338l.214,1.338c.12.856.214,1.726.308,2.6s.067,1.619.094,2.435,0,1.619,0,2.4l-.187,2.195c-.08.709-.134,1.485-.254,2.154l-.388,2.061a60.215,60.215,0,0,1-4.5,13.221Z" transform="translate(37.022 -25.156)" fill="#ebebeb"/>
        <path id="Caminho_83518" data-name="Caminho 83518" d="M149.776,360.489a57.98,57.98,0,0,1,.816,11.588,81.52,81.52,0,0,1-3.613,20.848,134.256,134.256,0,0,1-6.945,19.282,85.639,85.639,0,0,1-10.7,17.583,80.768,80.768,0,0,1-15.415,14.893,50.848,50.848,0,0,1-21.744,8.658,49.018,49.018,0,0,1-12.525.254,39.9,39.9,0,0,1-11.668-3.145,40.707,40.707,0,0,1-9.153-5.674,80.421,80.421,0,0,1-7.079-6.69,27.832,27.832,0,0,1-3.091-4.014,31.765,31.765,0,0,1-2.181-4.683,52.052,52.052,0,0,1-2.328-10.29,87.834,87.834,0,0,1-.241-21.945A49.577,49.577,0,0,1,50.6,377.336,50.179,50.179,0,0,1,64.164,362.7a86.656,86.656,0,0,1,18.065-9.367c6.343-2.516,12.485-4.884,18.319-7.641s11.481-5.821,18.586-8.029a31.863,31.863,0,0,1,5.821-1.258,23.324,23.324,0,0,1,6.931.107,18.052,18.052,0,0,1,8.323,4.014,21.832,21.832,0,0,1,1.686,1.646c.5.562.99,1.137,1.459,1.74a28.1,28.1,0,0,1,2.208,3.506,33.012,33.012,0,0,1,1.606,3.452c.4,1.07.856,2.248,1.137,3.278l.468,1.619.388,1.566C149.415,358.468,149.589,359.458,149.776,360.489Z" transform="translate(-43.332 74.052)" fill="#ebebeb"/>
      </g>
      <g id="Grupo_13" data-name="Grupo 13" transform="translate(459.706 189.856)" opacity="0.4">
        <path id="Caminho_83519" data-name="Caminho 83519" d="M411.6,191.548c31.459-24.434,63.106-19.684,63.106-19.684s.147,32.008-28.569,59.613c-24.233,23.3-47.235,21.972-55.171,12.819S385.047,212.155,411.6,191.548Z" transform="translate(-386.879 -171.492)" fill="#ebebeb"/>
        <path id="Caminho_83520" data-name="Caminho 83520" d="M406.7,201.5c19.938-15.5,40-12.471,40-12.471s.094,20.272-18.1,37.788c-15.362,14.719-29.96,13.93-34.978,8.122S389.866,214.561,406.7,201.5Z" transform="translate(-385.476 -165.642)" fill="#fff"/>
      </g>
      <path id="Caminho_83521" data-name="Caminho 83521" d="M414.283,205.73l-2.382-1.9a1.579,1.579,0,0,1-.254-2.221h0a1.579,1.579,0,0,1,2.221-.241l2.382,1.9a1.566,1.566,0,0,1,.241,2.208h0a1.566,1.566,0,0,1-2.208.254Z" transform="translate(81.085 28.347)" fill="#ebebeb"/>
      <path id="Caminho_83522" data-name="Caminho 83522" d="M393.944,224.113l-1.659-2.556a1.579,1.579,0,0,1,.455-2.181h0a1.579,1.579,0,0,1,2.195.455l1.659,2.556a1.579,1.579,0,0,1-.468,2.181h0A1.579,1.579,0,0,1,393.944,224.113Z" transform="translate(74.568 34.466)" fill="#ebebeb"/>
      <path id="Caminho_83523" data-name="Caminho 83523" d="M405.982,201.708h-1.646a1.579,1.579,0,0,1-1.525-1.632h0a1.579,1.579,0,0,1,1.632-1.525h1.633a1.566,1.566,0,0,1,1.525,1.619h0a1.579,1.579,0,0,1-1.619,1.539Z" transform="translate(78.213 27.512)" fill="#ebebeb"/>
      <path id="Caminho_83524" data-name="Caminho 83524" d="M416.5,216.5v-1.632a1.566,1.566,0,0,1,1.619-1.525h0a1.579,1.579,0,0,1,1.539,1.619v1.646a1.566,1.566,0,0,1-1.619,1.525h0A1.579,1.579,0,0,1,416.5,216.5Z" transform="translate(82.842 32.513)" fill="#ebebeb"/>
      <path id="Caminho_83525" data-name="Caminho 83525" d="M390.48,216.914l-.187-1.619a1.592,1.592,0,0,1,1.338-1.753h0a1.592,1.592,0,0,1,1.753,1.405l.174,1.619a1.566,1.566,0,0,1-1.338,1.74h0a1.566,1.566,0,0,1-1.74-1.392Z" transform="translate(73.978 32.579)" fill="#ebebeb"/>
      <path id="Caminho_83526" data-name="Caminho 83526" d="M411.21,227.489l-1.525.6a1.579,1.579,0,0,1-2.047-.9h0a1.579,1.579,0,0,1,.9-2.047l1.526-.589a1.579,1.579,0,0,1,2.047.883h0a1.566,1.566,0,0,1-.9,2.047Z" transform="translate(79.809 36.269)" fill="#ebebeb"/>
      <circle id="Elipse_9427" data-name="Elipse 9427" cx="18.212" cy="18.212" r="18.212" transform="translate(463.397 229.73) rotate(-6.37)" fill="#ebebeb"/>
      <path id="Caminho_83527" data-name="Caminho 83527" d="M398.84,205.86a4.015,4.015,0,0,0,.95,2.382,4.938,4.938,0,0,0,2.154,1.525,3.6,3.6,0,0,0,2.676-.08,3.733,3.733,0,0,0,1.847-1.78,5.42,5.42,0,0,1-2.061,1.2,3.186,3.186,0,0,1-1.111.12,3.465,3.465,0,0,1-1.1-.214l-.535-.214c-.174-.094-.348-.174-.508-.281a5.759,5.759,0,0,1-.923-.7,6.049,6.049,0,0,1-1.392-1.967Z" transform="translate(76.871 29.984)" fill="#c7c7c7"/>
      <path id="Caminho_83528" data-name="Caminho 83528" d="M405.105,206.844a2.676,2.676,0,0,0-.575-1.7,3.292,3.292,0,0,0-1.5-1.084A2.449,2.449,0,0,0,399.9,205.4a4.015,4.015,0,0,1,1.445-.723,2.435,2.435,0,0,1,1.418.08,4.309,4.309,0,0,1,2.342,2.087Z" transform="translate(77.23 29.321)" fill="#c7c7c7"/>
      <path id="Caminho_83529" data-name="Caminho 83529" d="M409.444,214.87a2.462,2.462,0,0,0,.147,1.74,2.916,2.916,0,0,0,1.2,1.338,2.328,2.328,0,0,0,1.833.281,2.422,2.422,0,0,0,1.432-1,4.536,4.536,0,0,1-1.525.4,2.409,2.409,0,0,1-1.338-.361,3.558,3.558,0,0,1-1.084-.963A4.308,4.308,0,0,1,409.444,214.87Z" transform="translate(80.424 33.031)" fill="#c7c7c7"/>
      <path id="Caminho_83530" data-name="Caminho 83530" d="M413.181,216.708a1.538,1.538,0,0,0,0-1.218,2.008,2.008,0,0,0-.843-.977,1.686,1.686,0,0,0-1.338-.187,1.565,1.565,0,0,0-.95.789,3.544,3.544,0,0,1,1.057-.174,1.726,1.726,0,0,1,.816.254,3.092,3.092,0,0,1,1.258,1.512Z" transform="translate(80.661 32.826)" fill="#c7c7c7"/>
      <path id="Caminho_83531" data-name="Caminho 83531" d="M414.03,211.32a1.633,1.633,0,0,0-.388,1.218,1.766,1.766,0,0,0,.656,1.218,1.592,1.592,0,0,0,1.338.308,1.873,1.873,0,0,0,1.07-.669,6.69,6.69,0,0,1-1.124,0,1.338,1.338,0,0,1-.83-.308,1.78,1.78,0,0,1-.535-.736A3.238,3.238,0,0,1,414.03,211.32Z" transform="translate(81.873 31.83)" fill="#c7c7c7"/>
      <path id="Caminho_83532" data-name="Caminho 83532" d="M416.217,212.948a.977.977,0,0,0,.361-.843,1.2,1.2,0,0,0-.468-.91,1.111,1.111,0,0,0-1.017-.214,1.151,1.151,0,0,0-.723.562,5.8,5.8,0,0,1,.776.067,1.017,1.017,0,0,1,.468.2,1.459,1.459,0,0,1,.361.428A2.9,2.9,0,0,1,416.217,212.948Z" transform="translate(82.122 31.701)" fill="#c7c7c7"/>
      <path id="Caminho_83533" data-name="Caminho 83533" d="M394.94,209.454a1.646,1.646,0,0,0,.522,1.178,1.766,1.766,0,0,0,1.338.468,1.579,1.579,0,0,0,1.231-.682,1.927,1.927,0,0,0,.348-1.218,6.308,6.308,0,0,1-.8.789,1.539,1.539,0,0,1-.816.321,1.806,1.806,0,0,1-.9-.187,3.546,3.546,0,0,1-.923-.669Z" transform="translate(75.552 31.114)" fill="#c7c7c7"/>
      <path id="Caminho_83534" data-name="Caminho 83534" d="M397.642,209.315a1.03,1.03,0,0,0-.294-.87,1.244,1.244,0,0,0-.95-.375,1.164,1.164,0,0,0-1.07,1.418c.241-.187.428-.348.616-.468a1.245,1.245,0,0,1,.5-.161,1.338,1.338,0,0,1,.549.094A2.676,2.676,0,0,1,397.642,209.315Z" transform="translate(75.674 30.731)" fill="#c7c7c7"/>
      <path id="Caminho_83535" data-name="Caminho 83535" d="M405.088,219.619a4.014,4.014,0,1,1,1.855-2.462,4.014,4.014,0,0,1-1.855,2.462Z" transform="translate(76.939 32.108)" fill="#dbdbdb"/>
      <path id="Caminho_83536" data-name="Caminho 83536" d="M400.958,214.465a3.653,3.653,0,0,0-1.78,2.783,4.014,4.014,0,1,1,7.2,1.151,3.653,3.653,0,0,0-5.353-3.934Z" transform="translate(76.935 32.111)" fill="#c7c7c7"/>
      <path id="Caminho_83537" data-name="Caminho 83537" d="M398,216.1a5.259,5.259,0,0,0,1.218,2.89,6.2,6.2,0,0,0,2.676,1.833,4.442,4.442,0,0,0,3.265,0,4.777,4.777,0,0,0,2.208-2.181,6.168,6.168,0,0,1-2.516,1.552,4.344,4.344,0,0,1-.7.161,3.146,3.146,0,0,1-.709,0,4.134,4.134,0,0,1-1.338-.268l-.669-.268c-.214-.12-.428-.214-.629-.348a6.84,6.84,0,0,1-1.164-.883A7.628,7.628,0,0,1,398,216.1Z" transform="translate(76.587 33.447)" fill="#c7c7c7"/>
      <path id="Caminho_83538" data-name="Caminho 83538" d="M395.317,218.337a1.5,1.5,0,1,1-1-2.837,1.525,1.525,0,0,1,1.913.923,1.5,1.5,0,0,1-.91,1.914Z" transform="translate(75.001 33.217)" fill="#dbdbdb"/>
      <path id="Caminho_83539" data-name="Caminho 83539" d="M394.215,216.185a1.338,1.338,0,0,0-.843.9,1.485,1.485,0,0,1,.99-1.552,1.525,1.525,0,0,1,1.913.923,1.5,1.5,0,0,1-.361,1.566,1.376,1.376,0,0,0-1.7-1.833Z" transform="translate(75.02 33.227)" fill="#c7c7c7"/>
      <path id="Caminho_83540" data-name="Caminho 83540" d="M392.875,216.61a1.873,1.873,0,0,0,.2,1.164,2.355,2.355,0,0,0,.856.883,1.659,1.659,0,0,0,1.231.2,1.7,1.7,0,0,0,.99-.656,2.676,2.676,0,0,1-1.044.348,1.659,1.659,0,0,1-.977-.241A2.676,2.676,0,0,1,392.875,216.61Z" transform="translate(74.847 33.619)" fill="#c7c7c7"/>
      <path id="Caminho_83541" data-name="Caminho 83541" d="M403.922,225.074a2.128,2.128,0,1,1,1.39-.866A2.141,2.141,0,0,1,403.922,225.074Z" transform="translate(77.744 35.043)" fill="#dbdbdb"/>
      <path id="Caminho_83542" data-name="Caminho 83542" d="M402.845,221.73a1.927,1.927,0,0,0-1.405,1.044,2.128,2.128,0,0,1,4.229-.174,2.155,2.155,0,0,1-.883,2.114,1.994,1.994,0,0,0,.294-1.338,1.94,1.94,0,0,0-2.235-1.646Z" transform="translate(77.75 35.029)" fill="#c7c7c7"/>
      <path id="Caminho_83543" data-name="Caminho 83543" d="M400.854,222.11a2.81,2.81,0,0,0,.067,1.659,3.172,3.172,0,0,0,.95,1.405,2.449,2.449,0,0,0,1.619.589,2.543,2.543,0,0,0,1.552-.616,3.305,3.305,0,0,1-1.539.308,2.369,2.369,0,0,1-1.338-.575,3.627,3.627,0,0,1-.937-1.218,3.815,3.815,0,0,1-.375-1.552Z" transform="translate(77.52 35.479)" fill="#c7c7c7"/>
      <path id="Caminho_83544" data-name="Caminho 83544" d="M408.813,209.27a3.626,3.626,0,1,0,.749-4.75,3.412,3.412,0,0,0-.749,4.75Z" transform="translate(80.025 29.251)" fill="#dbdbdb"/>
      <path id="Caminho_83545" data-name="Caminho 83545" d="M413.79,206.155a2.8,2.8,0,0,1,.455,2.676,3.305,3.305,0,0,0,.12-4.121,3.426,3.426,0,0,0-4.8-.161,3.653,3.653,0,0,0-1.338,3.479,3.506,3.506,0,0,1,1.218-2.007,3.091,3.091,0,0,1,4.349.134Z" transform="translate(80.026 29.235)" fill="#c7c7c7"/>
      <path id="Caminho_83546" data-name="Caminho 83546" d="M407.661,206.15a3.519,3.519,0,0,0-.174,2.676,3.29,3.29,0,0,0,.736,1.2,3.332,3.332,0,0,0,2.529,1.137,4.216,4.216,0,0,0,1.338-.187,5.62,5.62,0,0,0,2.275-1.338,11.723,11.723,0,0,1-2.409.709,4.228,4.228,0,0,1-2.288-.227,3.758,3.758,0,0,1-.937-.642,2.89,2.89,0,0,1-.7-.91A4.616,4.616,0,0,1,407.661,206.15Z" transform="translate(79.732 30.082)" fill="#c7c7c7"/>
    </g>
    <g id="freepik--Moon--inject-50" transform="translate(46.731 400.606)">
      <path id="Caminho_83547" data-name="Caminho 83547" d="M69.4,346.54l10.3-10.3a7.547,7.547,0,0,0,0-10.7h0a7.56,7.56,0,0,0-10.7,0l-10.3,10.3a7.547,7.547,0,0,0,0,10.7h0a7.56,7.56,0,0,0,10.7,0Z" transform="translate(-42.29 -301.301)" fill="#ebebeb"/>
      <path id="Caminho_83548" data-name="Caminho 83548" d="M174.926,423.057l6.543-13.02a7.56,7.56,0,0,0-3.359-10.143h0a7.547,7.547,0,0,0-10.143,3.359l-6.543,13.02a7.547,7.547,0,0,0,3.359,10.143h0a7.547,7.547,0,0,0,10.143-3.359Z" transform="translate(-7.075 -275.68)" fill="#ebebeb"/>
      <path id="Caminho_83549" data-name="Caminho 83549" d="M106.07,323.01l7.748-1.111a7.56,7.56,0,0,0,6.41-8.551h0a7.547,7.547,0,0,0-8.551-6.41l-7.748,1.111a7.547,7.547,0,0,0-6.41,8.551h0a7.56,7.56,0,0,0,8.551,6.41Z" transform="translate(-28.435 -306.862)" fill="#ebebeb"/>
      <path id="Caminho_83550" data-name="Caminho 83550" d="M62.007,398.937,60.9,391.189a7.547,7.547,0,0,0-8.551-6.41h0a7.534,7.534,0,0,0-6.4,8.537l1.1,7.761a7.574,7.574,0,0,0,8.551,6.409h0a7.56,7.56,0,0,0,6.41-8.551Z" transform="translate(-45.872 -280.543)" fill="#ebebeb"/>
      <rect id="Retângulo_147628" data-name="Retângulo 147628" width="22.935" height="15.107" rx="2.16" transform="translate(182.302 86.68) rotate(90)" fill="#ebebeb"/>
      <path id="Caminho_83551" data-name="Caminho 83551" d="M94.83,448.178l7.56,2.021a7.547,7.547,0,0,0,9.246-5.352h0a7.56,7.56,0,0,0-5.352-9.26l-7.56-2.021a7.56,7.56,0,0,0-9.26,5.352h0a7.587,7.587,0,0,0,5.366,9.26Z" transform="translate(-31.218 -264.109)" fill="#ebebeb"/>
      <circle id="Elipse_9428" data-name="Elipse 9428" cx="87.165" cy="87.165" r="87.165" transform="translate(2.62 7.705)" fill="#ebebeb"/>
      <path id="Caminho_83552" data-name="Caminho 83552" d="M145.576,339.12a19.577,19.577,0,0,1-3.225,11.829,23.59,23.59,0,0,1-9.474,8.377,17.288,17.288,0,0,1-12.806,1.084,17.984,17.984,0,0,1-9.741-7.494,26.026,26.026,0,0,0,10.451,4.617,15.294,15.294,0,0,0,5.352,0A16.9,16.9,0,0,0,131.2,355.9c.816-.4,1.646-.843,2.449-1.338a19.56,19.56,0,0,0,2.261-1.592,25.291,25.291,0,0,0,4.014-3.8A29.84,29.84,0,0,0,145.576,339.12Z" transform="translate(-24.078 -295.955)" fill="#c7c7c7"/>
      <path id="Caminho_83553" data-name="Caminho 83553" d="M113.278,346.8a12.538,12.538,0,0,1,1.82-8.336,15.7,15.7,0,0,1,6.557-5.968,11.882,11.882,0,0,1,9.1-.656,11.574,11.574,0,0,1,6.517,5.566,19.509,19.509,0,0,0-7.226-2.676,11.735,11.735,0,0,0-6.691,1.191A20.674,20.674,0,0,0,113.278,346.8Z" transform="translate(-23.118 -298.622)" fill="#c7c7c7"/>
      <path id="Caminho_83554" data-name="Caminho 83554" d="M96.421,387.61a11.829,11.829,0,0,1,.214,8.31,14.465,14.465,0,0,1-5.031,7.052,11.427,11.427,0,0,1-8.577,2.315,11.669,11.669,0,0,1-7.306-4.014,21.036,21.036,0,0,0,7.44,1.044,11.24,11.24,0,0,0,6.129-2.368,17.812,17.812,0,0,0,4.63-5.205,21.65,21.65,0,0,0,2.5-7.132Z" transform="translate(-35.78 -279.56)" fill="#c7c7c7"/>
      <path id="Caminho_83555" data-name="Caminho 83555" d="M77.933,398.191a7.574,7.574,0,0,1-.589-5.834,9.7,9.7,0,0,1,3.506-5.1,7.868,7.868,0,0,1,6.222-1.579,7.494,7.494,0,0,1,4.951,3.211,17.21,17.21,0,0,0-5.085-.228,8.028,8.028,0,0,0-3.787,1.619,14.8,14.8,0,0,0-5.219,7.908Z" transform="translate(-35.343 -280.252)" fill="#c7c7c7"/>
      <path id="Caminho_83556" data-name="Caminho 83556" d="M70.822,373.11a7.855,7.855,0,0,1,2.489,5.607,8.524,8.524,0,0,1-2.476,6.155,7.614,7.614,0,0,1-6.383,2.181,9.046,9.046,0,0,1-5.473-2.676,28.3,28.3,0,0,0,5.379-.308,6.69,6.69,0,0,0,3.733-1.873,8.845,8.845,0,0,0,2.208-3.787A16.057,16.057,0,0,0,70.822,373.11Z" transform="translate(-41.44 -284.463)" fill="#c7c7c7"/>
      <path id="Caminho_83557" data-name="Caminho 83557" d="M60.311,381.976a4.978,4.978,0,0,1-2.168-3.854,5.928,5.928,0,0,1,1.726-4.576,5.433,5.433,0,0,1,4.777-1.525,5.66,5.66,0,0,1,3.733,2.261,29.348,29.348,0,0,0-3.666.736,4.537,4.537,0,0,0-2.128,1.218,6.824,6.824,0,0,0-1.459,2.208,12.78,12.78,0,0,0-.816,3.533Z" transform="translate(-41.727 -284.858)" fill="#c7c7c7"/>
      <path id="Caminho_83558" data-name="Caminho 83558" d="M161.229,353.82a7.748,7.748,0,0,1-1.873,5.834,8.55,8.55,0,0,1-5.928,2.971,7.627,7.627,0,0,1-6.222-2.609,9.1,9.1,0,0,1-2.355-5.607,28.58,28.58,0,0,0,4.3,3.332,6.838,6.838,0,0,0,4.014,1.084,8.912,8.912,0,0,0,4.162-1.338,16.513,16.513,0,0,0,3.907-3.666Z" transform="translate(-12.406 -290.985)" fill="#c7c7c7"/>
      <path id="Caminho_83559" data-name="Caminho 83559" d="M146.887,354.86a4.978,4.978,0,0,1,.95-4.322,5.955,5.955,0,0,1,4.322-2.275,5.352,5.352,0,0,1,4.576,2.021,5.634,5.634,0,0,1,1.338,4.175,26.764,26.764,0,0,0-3.238-1.9,4.456,4.456,0,0,0-2.4-.5,6.784,6.784,0,0,0-2.556.669,12.978,12.978,0,0,0-3,2.128Z" transform="translate(-11.767 -292.868)" fill="#c7c7c7"/>
      <path id="Caminho_83560" data-name="Caminho 83560" d="M123.443,407.4a19.309,19.309,0,1,0-9.688-25.424,19.309,19.309,0,0,0,9.688,25.424Z" transform="translate(-23.488 -285.344)" fill="#dbdbdb"/>
      <path id="Caminho_83561" data-name="Caminho 83561" d="M140.334,380.649a17.4,17.4,0,0,1,9.929,12.3,19.229,19.229,0,1,0-33.6,9.367,17.516,17.516,0,0,1,23.671-21.624Z" transform="translate(-23.493 -285.311)" fill="#c7c7c7"/>
      <path id="Caminho_83562" data-name="Caminho 83562" d="M157.346,387.32a24.862,24.862,0,0,1-4.255,14.4,29.438,29.438,0,0,1-11.615,10.13,21.2,21.2,0,0,1-15.522,1.418,22.815,22.815,0,0,1-12.123-8.912,30.67,30.67,0,0,0,12.833,6.021,29.061,29.061,0,0,0,3.385.361,18.6,18.6,0,0,0,3.345-.268,21.411,21.411,0,0,0,6.41-2.034c1.03-.522,2.061-1.07,3.051-1.659a20.809,20.809,0,0,0,2.837-1.994,30.415,30.415,0,0,0,5-4.817A35.126,35.126,0,0,0,157.346,387.32Z" transform="translate(-22.894 -279.658)" fill="#c7c7c7"/>
      <path id="Caminho_83563" data-name="Caminho 83563" d="M163.521,396.4a7.212,7.212,0,1,0-5.352-8.644A7.213,7.213,0,0,0,163.521,396.4Z" transform="translate(-7.967 -281.4)" fill="#dbdbdb"/>
      <path id="Caminho_83564" data-name="Caminho 83564" d="M167.8,385.382a6.517,6.517,0,0,1,4.509,3.8,7.172,7.172,0,1,0-11.642,5.807,6.437,6.437,0,0,1-.682-4.7A6.53,6.53,0,0,1,167.8,385.382Z" transform="translate(-7.969 -281.386)" fill="#c7c7c7"/>
      <path id="Caminho_83565" data-name="Caminho 83565" d="M174.509,387a8.872,8.872,0,0,1-.361,5.66,10.7,10.7,0,0,1-3.559,4.643,8.028,8.028,0,0,1-5.727,1.619,8.162,8.162,0,0,1-5.071-2.583,12.178,12.178,0,0,0,5.138,1.1,7.788,7.788,0,0,0,4.523-1.646A13.073,13.073,0,0,0,174.509,387Z" transform="translate(-7.355 -279.766)" fill="#c7c7c7"/>
      <path id="Caminho_83566" data-name="Caminho 83566" d="M127.605,432.829a10.237,10.237,0,1,0-9.621-10.772A10.237,10.237,0,0,0,127.605,432.829Z" transform="translate(-21.495 -271.187)" fill="#dbdbdb"/>
      <path id="Caminho_83567" data-name="Caminho 83567" d="M130.9,416.382a9.206,9.206,0,0,1,7.253,4.2,10.2,10.2,0,1,0-14.866,10.986,9.139,9.139,0,0,1-2.114-6.41,9.26,9.26,0,0,1,9.728-8.778Z" transform="translate(-21.497 -271.172)" fill="#c7c7c7"/>
      <path id="Caminho_83568" data-name="Caminho 83568" d="M140.515,417.44a13.381,13.381,0,0,1,.575,7.922,15.616,15.616,0,0,1-3.814,7.2,11.334,11.334,0,0,1-7.386,3.64,12.244,12.244,0,0,1-7.681-2.074,16.058,16.058,0,0,0,7.493.6,11.16,11.16,0,0,0,6.182-3.466,17.4,17.4,0,0,0,3.787-6.289,18.4,18.4,0,0,0,.843-7.534Z" transform="translate(-20.061 -269.474)" fill="#c7c7c7"/>
      <path id="Caminho_83569" data-name="Caminho 83569" d="M98.941,360.263c-4.616,7.052-14.813,8.551-22.748,3.345s-10.7-15.147-6.075-22.2,14.8-8.551,22.748-3.345S103.544,353.211,98.941,360.263Z" transform="translate(-38.434 -297.361)" fill="#dbdbdb"/>
      <path id="Caminho_83570" data-name="Caminho 83570" d="M73.61,348.02a13.381,13.381,0,0,0-.749,12.859c-5.352-5.486-6.691-13.5-2.757-19.483,4.6-7.039,14.8-8.537,22.748-3.332a17.462,17.462,0,0,1,8.27,15.776,16.633,16.633,0,0,0-6.865-8.872C87.058,340.259,77.8,341.61,73.61,348.02Z" transform="translate(-38.447 -297.361)" fill="#c7c7c7"/>
      <path id="Caminho_83571" data-name="Caminho 83571" d="M102.9,345.17a16.379,16.379,0,0,1,2.288,12.431,15.549,15.549,0,0,1-2.877,6.075,19.256,19.256,0,0,1-4.991,4.59,18.535,18.535,0,0,1-6.436,2.181,21.557,21.557,0,0,1-6.57-.187,26.937,26.937,0,0,1-11.548-5A53.73,53.73,0,0,0,84.639,367.3a19.483,19.483,0,0,0,10.7-2.3,16.526,16.526,0,0,0,4.121-3.559,14.961,14.961,0,0,0,2.823-4.7A21.53,21.53,0,0,0,102.9,345.17Z" transform="translate(-36.777 -293.91)" fill="#c7c7c7"/>
    </g>
    <g id="freepik--Stars--inject-50" transform="translate(55.446 66.101)">
      <path id="Caminho_83572" data-name="Caminho 83572" d="M386.75,342.179l7.373,1.352,1.646,7.774,1.646-7.774,7.373-1.365-7.346-1.793-1.673-7.333-1.686,7.333Z" transform="translate(60.669 36.494)" fill="#c7c7c7"/>
      <path id="Caminho_83573" data-name="Caminho 83573" d="M159.46,310.816l7.373,1.365,1.646,7.774,1.646-7.774,7.373-1.365-7.333-1.793-1.686-7.333-1.673,7.333Z" transform="translate(-16.181 25.894)" fill="#c7c7c7"/>
      <path id="Caminho_83574" data-name="Caminho 83574" d="M330.48,248.749l7.373,1.365,1.646,7.761,1.646-7.761,7.373-1.365-7.333-1.806L339.5,239.61l-1.673,7.333Z" transform="translate(41.644 4.904)" fill="#c7c7c7"/>
      <path id="Caminho_83575" data-name="Caminho 83575" d="M439.11,306.968l4.121.763.923,4.349.923-4.349,4.108-.763-4.095-1-.937-4.095-.937,4.095Z" transform="translate(78.373 25.955)" fill="#c7c7c7"/>
      <path id="Caminho_83576" data-name="Caminho 83576" d="M205.47,430.468l4.108.763.923,4.349.923-4.349,4.121-.763-4.108-1-.937-4.095-.937,4.095Z" transform="translate(-0.624 67.712)" fill="#c7c7c7"/>
      <path id="Caminho_83577" data-name="Caminho 83577" d="M431.58,160.882l4.121.763.923,4.335.91-4.335,4.121-.776-4.095-.99-.937-4.108-.95,4.108Z" transform="translate(75.827 -23.444)" fill="#c7c7c7"/>
      <path id="Caminho_83578" data-name="Caminho 83578" d="M68.39,230.692l4.121.763.923,4.335.91-4.335,4.121-.763-4.095-1-.937-4.108-.937,4.108Z" transform="translate(-46.973 0.16)" fill="#c7c7c7"/>
      <path id="Caminho_83579" data-name="Caminho 83579" d="M84.91,395.882l4.121.763.923,4.335.91-4.335,4.121-.763-4.095-1-.937-4.108L89,394.878Z" transform="translate(-41.387 56.013)" fill="#c7c7c7"/>
      <path id="Caminho_83580" data-name="Caminho 83580" d="M419.7,243.092l4.121.763.91,4.336.923-4.336,4.121-.763-4.095-1-.95-4.108-.937,4.108Z" transform="translate(71.81 4.353)" fill="#c7c7c7"/>
      <path id="Caminho_83581" data-name="Caminho 83581" d="M289.83,347.978l4.121.763.923,4.349.923-4.349,4.121-.763-4.108-1-.937-4.095-.937,4.095Z" transform="translate(27.899 39.821)" fill="#c7c7c7"/>
      <path id="Caminho_83582" data-name="Caminho 83582" d="M177.79,87.362l4.121.763.923,4.335.923-4.335,4.108-.763-4.095-1-.937-4.108-.937,4.108Z" transform="translate(-9.983 -48.302)" fill="#c7c7c7"/>
      <path id="Caminho_83583" data-name="Caminho 83583" d="M298.32,336.192l4.121.763.923,4.349.923-4.349,4.121-.763-4.108-1-.937-4.108-.937,4.108Z" transform="translate(30.77 35.831)" fill="#c7c7c7"/>
      <path id="Caminho_83584" data-name="Caminho 83584" d="M198.452,436.2a1.2,1.2,0,1,1-1.078,1.2,1.2,1.2,0,0,1,1.078-1.2Z" transform="translate(-3.361 71.374)" fill="#c7c7c7"/>
      <path id="Caminho_83585" data-name="Caminho 83585" d="M357.662,268.81a1.2,1.2,0,1,1-1.078,1.2,1.2,1.2,0,0,1,1.078-1.2Z" transform="translate(50.47 14.777)" fill="#c7c7c7"/>
      <path id="Caminho_83586" data-name="Caminho 83586" d="M281.541,344a1.191,1.191,0,1,1-1.191,1.191A1.191,1.191,0,0,1,281.541,344Z" transform="translate(24.694 40.2)" fill="#c7c7c7"/>
      <path id="Caminho_83587" data-name="Caminho 83587" d="M149.171,429.51a1.191,1.191,0,1,1-1.191,1.191,1.191,1.191,0,0,1,1.191-1.191Z" transform="translate(-20.062 69.112)" fill="#c7c7c7"/>
      <path id="Caminho_83588" data-name="Caminho 83588" d="M447.082,441.33a1.2,1.2,0,1,1-1.078,1.2A1.2,1.2,0,0,1,447.082,441.33Z" transform="translate(80.704 73.109)" fill="#c7c7c7"/>
      <path id="Caminho_83589" data-name="Caminho 83589" d="M400.161,280.51a1.191,1.191,0,1,1-1.191,1.191,1.191,1.191,0,0,1,1.191-1.191Z" transform="translate(64.801 18.733)" fill="#c7c7c7"/>
      <path id="Caminho_83590" data-name="Caminho 83590" d="M220.753,420.15a.843.843,0,1,1-.843.843.843.843,0,0,1,.843-.843Z" transform="translate(4.258 65.947)" fill="#c7c7c7"/>
      <path id="Caminho_83591" data-name="Caminho 83591" d="M94.649,92.32a.856.856,0,1,1-.75.85.856.856,0,0,1,.75-.85Z" transform="translate(-38.348 -44.897)" fill="#c7c7c7"/>
      <path id="Caminho_83592" data-name="Caminho 83592" d="M338.213,295.25a.843.843,0,1,1-.843.843A.843.843,0,0,1,338.213,295.25Z" transform="translate(43.973 23.717)" fill="#c7c7c7"/>
      <path id="Caminho_83593" data-name="Caminho 83593" d="M307.673,349.88a.843.843,0,1,1-.843.843A.843.843,0,0,1,307.673,349.88Z" transform="translate(33.647 42.188)" fill="#c7c7c7"/>
      <path id="Caminho_83594" data-name="Caminho 83594" d="M257.7,339.23a.856.856,0,1,1-.75.85.856.856,0,0,1,.75-.85Z" transform="translate(16.782 38.587)" fill="#c7c7c7"/>
      <path id="Caminho_83595" data-name="Caminho 83595" d="M317.138,283.78a2.288,2.288,0,1,1-2.288,2.288,2.288,2.288,0,0,1,2.288-2.288Z" transform="translate(36.359 19.838)" fill="#c7c7c7"/>
      <path id="Caminho_83596" data-name="Caminho 83596" d="M228.99,113.279l7.373,1.365,1.646,7.761,1.646-7.761,7.373-1.365-7.346-1.793-1.673-7.346-1.686,7.346Z" transform="translate(7.328 -40.901)" fill="#c7c7c7"/>
      <path id="Caminho_83597" data-name="Caminho 83597" d="M249.98,61.992l4.121.763.923,4.335.923-4.335,4.108-.763-4.095-1-.937-4.108-.937,4.108Z" transform="translate(14.425 -56.88)" fill="#c7c7c7"/>
      <path id="Caminho_83598" data-name="Caminho 83598" d="M63.641,144a1.191,1.191,0,1,1-1.191,1.191A1.191,1.191,0,0,1,63.641,144Z" transform="translate(-48.981 -27.423)" fill="#c7c7c7"/>
      <path id="Caminho_83599" data-name="Caminho 83599" d="M77.632,380.7a1.2,1.2,0,1,1-1.078,1.2,1.2,1.2,0,0,1,1.078-1.2Z" transform="translate(-44.212 52.609)" fill="#c7c7c7"/>
      <path id="Caminho_83600" data-name="Caminho 83600" d="M53.462,425a1.2,1.2,0,1,1-1.078,1.2,1.2,1.2,0,0,1,1.078-1.2Z" transform="translate(-52.385 67.587)" fill="#c7c7c7"/>
      <path id="Caminho_83601" data-name="Caminho 83601" d="M99.172,218.82a1.2,1.2,0,1,1-1.078,1.2A1.2,1.2,0,0,1,99.172,218.82Z" transform="translate(-36.929 -2.126)" fill="#c7c7c7"/>
      <path id="Caminho_83602" data-name="Caminho 83602" d="M53.462,64.77a1.2,1.2,0,1,1-1.078,1.2,1.2,1.2,0,0,1,1.078-1.2Z" transform="translate(-52.385 -54.212)" fill="#c7c7c7"/>
      <path id="Caminho_83603" data-name="Caminho 83603" d="M134.4,338.15a.856.856,0,1,1-.75.85A.856.856,0,0,1,134.4,338.15Z" transform="translate(-24.908 38.222)" fill="#c7c7c7"/>
      <path id="Caminho_83604" data-name="Caminho 83604" d="M267.6,419.08a.843.843,0,1,1-.843.843A.843.843,0,0,1,267.6,419.08Z" transform="translate(20.099 65.586)" fill="#c7c7c7"/>
      <path id="Caminho_83605" data-name="Caminho 83605" d="M361.339,130.23a.856.856,0,1,1-.75.85A.856.856,0,0,1,361.339,130.23Z" transform="translate(51.824 -32.079)" fill="#c7c7c7"/>
      <path id="Caminho_83606" data-name="Caminho 83606" d="M247.313,91.57a.843.843,0,1,1-.843.843.843.843,0,0,1,.843-.843Z" transform="translate(13.239 -45.151)" fill="#c7c7c7"/>
      <path id="Caminho_83607" data-name="Caminho 83607" d="M209.808,315.72a2.288,2.288,0,1,1-2.288,2.288,2.288,2.288,0,0,1,2.288-2.288Z" transform="translate(0.069 30.638)" fill="#c7c7c7"/>
      <path id="Caminho_83608" data-name="Caminho 83608" d="M435.127,186.45A2.3,2.3,0,1,1,433,188.745,2.3,2.3,0,0,1,435.127,186.45Z" transform="translate(76.308 -13.07)" fill="#c7c7c7"/>
      <path id="Caminho_83609" data-name="Caminho 83609" d="M85.048,336.44a2.288,2.288,0,1,1-2.288,2.288A2.288,2.288,0,0,1,85.048,336.44Z" transform="translate(-42.114 37.644)" fill="#c7c7c7"/>
      <path id="Caminho_83610" data-name="Caminho 83610" d="M228.19,271.892l4.121.763.923,4.335.923-4.335,4.121-.763-4.108-1-.937-4.108-.937,4.108Z" transform="translate(7.058 14.09)" fill="#c7c7c7"/>
      <path id="Caminho_83611" data-name="Caminho 83611" d="M293.6,427.162l4.121.763.923,4.335.91-4.335,4.121-.776-4.095-.99-.937-4.108-.95,4.108Z" transform="translate(29.174 66.59)" fill="#c7c7c7"/>
      <path id="Caminho_83612" data-name="Caminho 83612" d="M307.512,385.88a1.2,1.2,0,1,1-1.078,1.2,1.2,1.2,0,0,1,1.078-1.2Z" transform="translate(33.514 54.36)" fill="#c7c7c7"/>
      <path id="Caminho_83613" data-name="Caminho 83613" d="M342.272,362.14a1.2,1.2,0,1,1-1.077,1.2,1.2,1.2,0,0,1,1.077-1.2Z" transform="translate(45.267 46.333)" fill="#c7c7c7"/>
      <path id="Caminho_83614" data-name="Caminho 83614" d="M231.96,404.422l4.121.763.923,4.349.923-4.349,4.121-.763-4.108-1L237,399.31l-.937,4.108Z" transform="translate(8.333 58.901)" fill="#c7c7c7"/>
      <path id="Caminho_83615" data-name="Caminho 83615" d="M358.972,115.68a1.2,1.2,0,1,1-1.077,1.2,1.2,1.2,0,0,1,1.077-1.2Z" transform="translate(50.913 -36.999)" fill="#c7c7c7"/>
      <path id="Caminho_83616" data-name="Caminho 83616" d="M380.383,365a.843.843,0,1,1-.843.843.843.843,0,0,1,.843-.843Z" transform="translate(58.232 47.3)" fill="#c7c7c7"/>
      <path id="Caminho_83617" data-name="Caminho 83617" d="M111.52,258.912l4.121.763.91,4.335.923-4.335,4.121-.763-4.095-1-.95-4.108-.937,4.108Z" transform="translate(-32.39 9.702)" fill="#c7c7c7"/>
      <path id="Caminho_83618" data-name="Caminho 83618" d="M76.221,306.73a1.191,1.191,0,1,1-1.191,1.191A1.191,1.191,0,0,1,76.221,306.73Z" transform="translate(-44.728 27.598)" fill="#c7c7c7"/>
      <path id="Caminho_83619" data-name="Caminho 83619" d="M199.3,241a1.191,1.191,0,1,1-1.191,1.191A1.191,1.191,0,0,1,199.3,241Z" transform="translate(-3.113 5.374)" fill="#c7c7c7"/>
      <path id="Caminho_83620" data-name="Caminho 83620" d="M94.649,150.83a.856.856,0,1,1-.75.85A.856.856,0,0,1,94.649,150.83Z" transform="translate(-38.348 -25.114)" fill="#c7c7c7"/>
      <path id="Caminho_83621" data-name="Caminho 83621" d="M86.948,145a2.288,2.288,0,1,1-2.288,2.288A2.288,2.288,0,0,1,86.948,145Z" transform="translate(-41.472 -27.085)" fill="#c7c7c7"/>
      <path id="Caminho_83622" data-name="Caminho 83622" d="M436.818,69.49a2.288,2.288,0,1,1-2.288,2.288A2.288,2.288,0,0,1,436.818,69.49Z" transform="translate(76.825 -52.616)" fill="#c7c7c7"/>
    </g>
    <g id="freepik--Planets--inject-50" transform="translate(78.682 71.116)">
      <circle id="Elipse_9429" data-name="Elipse 9429" cx="43.609" cy="43.609" r="43.609" transform="matrix(0.727, -0.686, 0.686, 0.727, 341.392, 439.973)" fill="#455a64"/>
      <path id="Caminho_83623" data-name="Caminho 83623" d="M341.39,417.106a51.277,51.277,0,0,1,12.886-9.554c8.31-4.5,31.406-10.531,41.816-16.887,14.639-8.925,15.87-17.4,15.442-21.651a43.849,43.849,0,0,0-14.211-8.724c-.736,4.483-3.72,18.52-28.328,29.439-12.712,5.66-25.424,3.586-29.813,2.89A43.462,43.462,0,0,0,341.39,417.106Z" transform="translate(21.065 40.693)" fill="#37474f"/>
      <path id="Caminho_83624" data-name="Caminho 83624" d="M355.31,422.6a43.689,43.689,0,0,0,54.046-9.889,34.79,34.79,0,0,0-8.029-2.475c-11.923-1.9-24.34,4.737-28.823,7.748A25.612,25.612,0,0,1,355.31,422.6Z" transform="translate(26.802 57.466)" fill="#37474f"/>
      <path id="Caminho_83625" data-name="Caminho 83625" d="M342.94,417.7l.629,1.017.589.9c.455.682.91,1.338,1.338,1.994a20.335,20.335,0,0,0,1.338,1.7l.522.616.6.682c.2.228.4.455.616.669l.749.776.749.749.669.629c.5.455,1,.9,1.512,1.338h0c2.77.6,6.369,0,11.494-2.569,7.654-3.733,15.562-11.869,30.375-18.586a54.5,54.5,0,0,1,29.184-4.228h0a43.489,43.489,0,0,0-3.238-26.187c-2.783.12-11.628,2.114-29.439,19.376A113.736,113.736,0,0,1,372.5,411.3c-15.589,9.835-25.21,8.029-29.291,6.41h-.268Z" transform="translate(22.62 46.41)" fill="#37474f"/>
      <path id="Caminho_83626" data-name="Caminho 83626" d="M372.567,373.614c.937,1.7,3.693,1.98,6.169.629s3.707-3.84,2.783-5.54-3.693-1.967-6.169-.616S371.644,371.847,372.567,373.614Z" transform="translate(32.534 43.038)" fill="#263238"/>
      <path id="Caminho_83627" data-name="Caminho 83627" d="M381.931,374.377c.522.95,2.154,1.07,3.64.254s2.248-2.248,1.726-3.2-2.154-1.084-3.64-.268S381.41,373.414,381.931,374.377Z" transform="translate(35.748 44.188)" fill="#263238"/>
      <path id="Caminho_83628" data-name="Caminho 83628" d="M360.414,416.98c.8,1.459,3.2,1.673,5.352.482s3.265-3.319,2.476-4.777-3.2-1.659-5.352-.482S359.625,415.535,360.414,416.98Z" transform="translate(28.442 57.987)" fill="#263238"/>
      <path id="Caminho_83629" data-name="Caminho 83629" d="M366.458,416.835a2.181,2.181,0,1,0,1.084-2.409,1.913,1.913,0,0,0-1.084,2.409Z" transform="translate(30.535 58.908)" fill="#263238"/>
      <path id="Caminho_83630" data-name="Caminho 83630" d="M367.142,413.494a1.2,1.2,0,0,0,1.632.2c.656-.361.977-1.03.723-1.485a1.218,1.218,0,0,0-1.646-.2C367.209,412.37,366.888,413.039,367.142,413.494Z" transform="translate(30.773 58.101)" fill="#263238"/>
      <path id="Caminho_83631" data-name="Caminho 83631" d="M387.435,412.283c.709,1.338,2.676,1.579,4.416.629s2.556-2.77,1.847-4.014-2.676-1.579-4.416-.629S386.725,410.985,387.435,412.283Z" transform="translate(37.578 56.73)" fill="#263238"/>
      <path id="Caminho_83632" data-name="Caminho 83632" d="M386.219,407.38a1.726,1.726,0,1,0,.776-2.168,1.632,1.632,0,0,0-.776,2.168Z" transform="translate(37.201 55.811)" fill="#263238"/>
      <path id="Caminho_83633" data-name="Caminho 83633" d="M354.7,423.708a376.811,376.811,0,0,0,78.48-25.879c19.537-9.179,31.593-17.971,29.96-22.935s-16.285-5.031-36.932-1.057c.562.87,1.084,1.753,1.592,2.676.187.348.361.7.549,1.03,10.986-1.4,18.265-.763,19.255,2.261s-4.657,8.029-14.626,13.488A241.526,241.526,0,0,1,393.65,409.7a241.937,241.937,0,0,1-41.482,10.1c-11.227,1.485-18.734.856-19.7-2.208s4.483-7.828,14.1-13.194a40.884,40.884,0,0,1-.482-4.416c-19.51,9.153-31.74,18.252-30.054,23.2S332.993,428.084,354.7,423.708Z" transform="translate(13.472 44.314)" fill="#263238"/>
      <path id="Caminho_83634" data-name="Caminho 83634" d="M360.014,428.063a385.626,385.626,0,0,0,38.578-10.384h0a387.057,387.057,0,0,0,37.173-14.037c27.137-12.043,44.466-24.314,42.2-31.352s-23.123-6.891-51.7-.937c.415.522.83,1.057,1.231,1.606,24.006-4.6,41.214-4.349,43.154,1.686s-12.137,16.512-34.711,26.923a349.79,349.79,0,0,1-37.855,14.585,348.087,348.087,0,0,1-39.434,10.33c-24.287,4.71-41.736,4.483-43.69-1.606s11.775-16.231,33.828-26.495a17.691,17.691,0,0,1,.08-2.047c-26.575,11.842-43.462,23.952-41.227,30.91S331.1,434.138,360.014,428.063Z" transform="translate(10.617 42.943)" fill="#37474f"/>
      <circle id="Elipse_9430" data-name="Elipse 9430" cx="25.732" cy="25.732" r="25.732" transform="matrix(0.946, -0.323, 0.323, 0.946, 181.426, 196.36)" fill="#ebebeb"/>
      <path id="Caminho_83635" data-name="Caminho 83635" d="M259.166,232.717a30.267,30.267,0,0,0-8.029-5c-5.1-2.248-18.974-4.71-25.424-7.962-9.032-4.55-10.156-9.46-10.1-12.043a25.679,25.679,0,0,1,7.935-5.807c.642,2.6,3.064,10.7,18.065,16.057,7.748,2.676,15.161.91,17.677.294A25.6,25.6,0,0,1,259.166,232.717Z" transform="translate(-20.433 -12.862)" fill="#dbdbdb"/>
      <path id="Caminho_83636" data-name="Caminho 83636" d="M248.462,236.819a25.745,25.745,0,0,1-32.262-3.238,20.218,20.218,0,0,1,4.616-1.833c6.918-1.686,14.532,1.619,17.315,3.185A15.121,15.121,0,0,0,248.462,236.819Z" transform="translate(-20.233 -2.927)" fill="#dbdbdb"/>
      <path id="Caminho_83637" data-name="Caminho 83637" d="M259.338,232.926l-.321.616c-.094.2-.2.375-.308.562q-.348.642-.723,1.244c-.227.361-.468.709-.709,1.057l-.281.388-.335.388-.335.428q-.187.241-.4.482t-.4.482l-.375.4c-.268.294-.535.575-.816.856h0c-1.592.5-3.747.281-6.878-.963-4.683-1.833-9.715-6.249-18.734-9.487a32.182,32.182,0,0,0-17.315-1.111h0a25.612,25.612,0,0,1,.669-15.549c1.633-.067,6.931.682,18.2,10a67.844,67.844,0,0,0,11.361,7.774c9.648,5.045,15.214,3.546,17.543,2.382h.161Z" transform="translate(-22.157 -9.204)" fill="#dbdbdb"/>
      <path id="Caminho_83638" data-name="Caminho 83638" d="M228.771,235.31c.455-1.044,2.061-1.338,3.586-.682s2.382,2.047,1.927,3.091-2.061,1.338-3.586.7S228.316,236.367,228.771,235.31Z" transform="translate(-16.024 -1.913)" fill="#c7c7c7"/>
      <path id="Caminho_83639" data-name="Caminho 83639" d="M234.195,233.822c.254-.589,1.2-.736,2.128-.335s1.445,1.191,1.191,1.78-1.218.749-2.128.348S233.954,234.424,234.195,233.822Z" transform="translate(-14.168 -2.258)" fill="#c7c7c7"/>
      <path id="Caminho_83640" data-name="Caminho 83640" d="M219.293,210.281c.388-.883,1.78-1.151,3.118-.562s2.1,1.78,1.7,2.676-1.78,1.151-3.118.562S218.932,211.178,219.293,210.281Z" transform="translate(-19.218 -10.324)" fill="#c7c7c7"/>
      <path id="Caminho_83641" data-name="Caminho 83641" d="M222.81,209.531a1.111,1.111,0,0,1,1.512-.361,1.124,1.124,0,0,1,.763,1.338,1.338,1.338,0,0,1-2.275-.99Z" transform="translate(-17.998 -10.457)" fill="#c7c7c7"/>
      <path id="Caminho_83642" data-name="Caminho 83642" d="M223.385,211.257a.709.709,0,0,1,.95-.2c.4.174.616.549.5.83a.7.7,0,0,1-.95.214A.709.709,0,0,1,223.385,211.257Z" transform="translate(-17.81 -9.801)" fill="#c7c7c7"/>
      <path id="Caminho_83643" data-name="Caminho 83643" d="M235.394,211.719a2.195,2.195,0,1,1,1.338,2.288A1.9,1.9,0,0,1,235.394,211.719Z" transform="translate(-13.762 -10.195)" fill="#c7c7c7"/>
      <path id="Caminho_83644" data-name="Caminho 83644" d="M234.937,213.992a1.017,1.017,0,1,1,.543,1.291,1.017,1.017,0,0,1-.543-1.291Z" transform="translate(-13.92 -8.963)" fill="#c7c7c7"/>
      <circle id="Elipse_9431" data-name="Elipse 9431" cx="25.732" cy="25.732" r="25.732" transform="translate(0 19.129) rotate(-21.82)" fill="#3d0e87"/>
      <circle id="Elipse_9432" data-name="Elipse 9432" cx="25.732" cy="25.732" r="25.732" transform="translate(0 19.129) rotate(-21.82)" opacity="0.1"/>
      <g id="Grupo_14" data-name="Grupo 14" transform="translate(7.707 10.132)" opacity="0.1">
        <path id="Caminho_83645" data-name="Caminho 83645" d="M124.163,99a30.415,30.415,0,0,0-8.029-5c-5.112-2.248-18.948-4.657-25.411-7.948-9.032-4.563-10.156-9.474-10.1-12.043A25.571,25.571,0,0,1,88.569,68.2c.642,2.6,3.051,10.7,18.051,16.057,7.748,2.676,15.161.9,17.676.281A25.6,25.6,0,0,1,124.163,99Z" transform="translate(-73.782 -68.2)"/>
        <path id="Caminho_83646" data-name="Caminho 83646" d="M113.452,103.112A25.772,25.772,0,0,1,81.19,99.861a20.472,20.472,0,0,1,4.616-1.833c6.918-1.686,14.545,1.633,17.4,3.185A15.08,15.08,0,0,0,113.452,103.112Z" transform="translate(-73.589 -58.272)"/>
        <path id="Caminho_83647" data-name="Caminho 83647" d="M124.338,99.22a6.975,6.975,0,0,1-.321.629c-.094.187-.187.375-.294.562-.241.415-.482.83-.736,1.231s-.455.723-.709,1.07l-.281.375a5.1,5.1,0,0,1-.321.428l-.321.428-.4.5-.415.468-.361.415c-.268.294-.549.575-.83.843h0c-1.606.482-3.747.268-6.891-.963-4.67-1.833-9.715-6.249-18.734-9.5a32.275,32.275,0,0,0-17.3-1.111h0A25.612,25.612,0,0,1,77.076,79c1.646-.067,6.931.682,18.212,10a66,66,0,0,0,11.361,7.774c9.661,5.112,15.214,3.64,17.543,2.435h.147Z" transform="translate(-75.509 -64.549)"/>
      </g>
      <g id="Grupo_15" data-name="Grupo 15" transform="translate(19.328 19.64)" opacity="0.1">
        <path id="Caminho_83648" data-name="Caminho 83648" d="M93.76,101.612c.455-1.057,2.061-1.338,3.586-.7s2.4,2.047,1.94,3.091-2.074,1.338-3.586.7S93.305,102.656,93.76,101.612Z" transform="translate(-81 -66.761)"/>
        <path id="Caminho_83649" data-name="Caminho 83649" d="M99.2,100.144c.254-.589,1.2-.749,2.114-.348s1.445,1.2,1.191,1.793-1.2.736-2.128.348S98.954,100.706,99.2,100.144Z" transform="translate(-79.143 -67.099)"/>
        <path id="Caminho_83650" data-name="Caminho 83650" d="M84.282,76.583c.388-.9,1.78-1.151,3.118-.575s2.1,1.78,1.713,2.676-1.793,1.151-3.131.562S83.934,77.44,84.282,76.583Z" transform="translate(-84.194 -75.171)"/>
        <path id="Caminho_83651" data-name="Caminho 83651" d="M87.809,75.82a1.124,1.124,0,0,1,1.512-.361.977.977,0,1,1-.749,1.726,1.137,1.137,0,0,1-.763-1.365Z" transform="translate(-82.984 -75.305)"/>
        <path id="Caminho_83652" data-name="Caminho 83652" d="M88.378,77.559a.709.709,0,0,1,.95-.214c.4.187.629.549.508.843a.723.723,0,0,1-.95.2A.7.7,0,0,1,88.378,77.559Z" transform="translate(-82.791 -74.649)"/>
        <path id="Caminho_83653" data-name="Caminho 83653" d="M100.395,78a2.181,2.181,0,1,1,1.338,2.3A1.9,1.9,0,0,1,100.395,78Z" transform="translate(-78.737 -75.036)"/>
        <path id="Caminho_83654" data-name="Caminho 83654" d="M99.927,80.282a1.017,1.017,0,1,1,.543,1.291A1.017,1.017,0,0,1,99.927,80.282Z" transform="translate(-78.897 -73.812)"/>
      </g>
    </g>
    <g id="freepik--Rocket--inject-50" transform="translate(134.535 68.967)">
      <path id="Caminho_83655" data-name="Caminho 83655" d="M274.765,125.224c-.95-1.137-56-26.669-105.858,11.374-45.83,34.978-61.741,100.72-55.652,102.3,7.453,1.927,27.873-29.439,67.066-46.687,13.9-6.115,36.022,0,36.022,0Z" transform="translate(-111.313 -39.828)" fill="#3d0e87"/>
      <path id="Caminho_83656" data-name="Caminho 83656" d="M195.072,192.19A87.085,87.085,0,0,0,175,189.513c8.644-18.091,24.782-51.839,35.259-73.7,24.661.227,42.726,8.778,43.275,9.367Z" transform="translate(-90.015 -39.821)" opacity="0.1"/>
      <path id="Caminho_83657" data-name="Caminho 83657" d="M336.424,202.77c.963,1.124,17.155,59.613-28.542,102.567-42,39.5-109.458,44.439-110.02,38.176-.682-7.667,33.613-22.681,57.03-58.529,8.3-12.712,5.9-35.54,5.9-35.54Z" transform="translate(-82.289 -10.418)" fill="#3d0e87"/>
      <path id="Caminho_83658" data-name="Caminho 83658" d="M322.834,247.3,244.34,270.144a87.179,87.179,0,0,0,.682-20.7l75.63-46.673C321.255,203.412,326.848,222.8,322.834,247.3Z" transform="translate(-66.571 -10.418)" opacity="0.1"/>
      <path id="Caminho_83659" data-name="Caminho 83659" d="M219.215,322.866,165.45,259.452s28.1-75.189,94.685-125.689c33.279-25.2,72.258-44.051,107.277-56.522,48.239-17.288,88.6-22.266,94.846-14.933s-5.352,46.379-30.215,91.166C413.992,185.869,389,221.3,358.7,250.019,297.977,307.5,219.215,322.866,219.215,322.866Z" transform="translate(-93.244 -59.018)" fill="#c7c7c7"/>
      <path id="Caminho_83660" data-name="Caminho 83660" d="M323.194,202.821a47.945,47.945,0,1,1,5.567-67.535,47.945,47.945,0,0,1-5.567,67.535Z" transform="translate(-66.61 -38.971)" fill="#a6a6a6"/>
      <path id="Caminho_83661" data-name="Caminho 83661" d="M325.149,199.5a47.945,47.945,0,1,1,5.567-67.575,47.945,47.945,0,0,1-5.567,67.575Z" transform="translate(-65.942 -40.102)" fill="#3d0e87"/>
      <path id="Caminho_83662" data-name="Caminho 83662" d="M311.955,184.554a33.252,33.252,0,1,1,3.827-46.834,33.252,33.252,0,0,1-3.827,46.834Z" transform="translate(-62.235 -36.386)" fill="#fff"/>
      <path id="Caminho_83663" data-name="Caminho 83663" d="M311.192,172.627a33.226,33.226,0,0,1-10.638,6.088l-26.762-2.181a33.024,33.024,0,0,1-9.5-7.734,32.6,32.6,0,0,1-4.831-7.56l57.673,4.7a32.774,32.774,0,0,1-5.941,6.691Z" transform="translate(-61.458 -24.46)" fill="#ebebeb"/>
      <path id="Caminho_83664" data-name="Caminho 83664" d="M316.57,141.639,263.34,137.3a32.513,32.513,0,0,1,3.479-3.439,33.239,33.239,0,0,1,46.834,3.827,32.267,32.267,0,0,1,2.917,3.947Z" transform="translate(-60.146 -36.385)" fill="#ebebeb"/>
      <path id="Caminho_83665" data-name="Caminho 83665" d="M321.493,161.663,257.8,156.457a26.766,26.766,0,0,1-.468-2.957l65.086,5.352C322.162,159.762,321.841,160.712,321.493,161.663Z" transform="translate(-62.178 -27.077)" fill="#ebebeb"/>
      <path id="Caminho_83666" data-name="Caminho 83666" d="M381.011,153.474,316.38,77.2c48.239-17.248,88.6-22.226,94.846-14.893S405.927,108.687,381.011,153.474Z" transform="translate(-42.213 -59.018)" fill="#3d0e87"/>
      <path id="Caminho_83667" data-name="Caminho 83667" d="M331.745,78.694a2.8,2.8,0,1,1,.321-3.934,2.8,2.8,0,0,1-.321,3.934Z" transform="translate(-38.577 -54.035)" fill="#fff"/>
      <path id="Caminho_83668" data-name="Caminho 83668" d="M340.333,88.836a2.8,2.8,0,1,1,.328-3.941,2.8,2.8,0,0,1-.328,3.941Z" transform="translate(-35.67 -50.608)" fill="#fff"/>
      <path id="Caminho_83669" data-name="Caminho 83669" d="M348.913,98.975a2.783,2.783,0,1,1,1.027-1.936A2.8,2.8,0,0,1,348.913,98.975Z" transform="translate(-32.756 -47.192)" fill="#fff"/>
      <path id="Caminho_83670" data-name="Caminho 83670" d="M357.515,109.113a2.8,2.8,0,1,1,1.014-1.939A2.8,2.8,0,0,1,357.515,109.113Z" transform="translate(-29.85 -43.762)" fill="#fff"/>
      <path id="Caminho_83671" data-name="Caminho 83671" d="M366.163,119.246a2.8,2.8,0,1,1,.98-1.907,2.8,2.8,0,0,1-.98,1.907Z" transform="translate(-26.937 -40.326)" fill="#fff"/>
      <path id="Caminho_83672" data-name="Caminho 83672" d="M178.163,208.946a2.8,2.8,0,1,1,.328-3.941,2.8,2.8,0,0,1-.328,3.941Z" transform="translate(-90.502 -9.997)" fill="#a6a6a6"/>
      <path id="Caminho_83673" data-name="Caminho 83673" d="M186.795,219.093a2.8,2.8,0,1,1,1.014-1.939,2.8,2.8,0,0,1-1.014,1.939Z" transform="translate(-87.573 -6.576)" fill="#a6a6a6"/>
      <path id="Caminho_83674" data-name="Caminho 83674" d="M195.393,229.246a2.8,2.8,0,1,1,.98-1.907,2.8,2.8,0,0,1-.98,1.907Z" transform="translate(-84.677 -3.133)" fill="#a6a6a6"/>
      <path id="Caminho_83675" data-name="Caminho 83675" d="M203.975,239.363a2.8,2.8,0,1,1,1.014-1.939,2.8,2.8,0,0,1-1.014,1.939Z" transform="translate(-81.764 0.278)" fill="#a6a6a6"/>
      <path id="Caminho_83676" data-name="Caminho 83676" d="M212.563,249.495a2.783,2.783,0,1,1,1.027-1.936A2.8,2.8,0,0,1,212.563,249.495Z" transform="translate(-78.858 3.701)" fill="#a6a6a6"/>
      <path id="Caminho_83677" data-name="Caminho 83677" d="M459.233,60.424c-37.226,2.676-101.7,25.21-169.526,78.414-50.126,39.3-86.7,108.08-103.744,144.811L165.45,259.456s28.1-75.189,94.685-125.689c33.279-25.2,72.258-44.051,107.277-56.522C410.646,61.736,447.538,56.116,459.233,60.424Z" transform="translate(-93.244 -59.022)" fill="#fff" opacity="0.2"/>
      <path id="Caminho_83678" data-name="Caminho 83678" d="M198.726,281.647,155.01,230.076l17.007-18.586L219.842,267.9Z" transform="translate(-96.774 -7.47)" fill="#3d0e87"/>
      <path id="Caminho_83679" data-name="Caminho 83679" d="M217.188,267.9l-10.29,6.691-44.037-56,6.5-7.092Z" transform="translate(-94.12 -7.466)" opacity="0.1"/>
      <path id="Caminho_83680" data-name="Caminho 83680" d="M375.967,142.239,355.989,140.9,346.6,159.929l.856-21.2-18.172-8.4,20.179.2,9.179-17.891-.482,20.1Z" transform="translate(-37.851 -40.892)" fill="#fcfcfc"/>
      <path id="Caminho_83681" data-name="Caminho 83681" d="M367.093,83.789l-11.173-.736-5.245,10.638.482-11.856L341,77.139l11.28.107,5.125-10-.268,11.24Z" transform="translate(-33.888 -56.24)" fill="#fcfcfc"/>
      <path id="Caminho_83682" data-name="Caminho 83682" d="M299.573,253.309l-11.16-.749L283.168,263.2l.468-11.842-10.156-4.7,11.28.107,5.138-10-.281,11.24Z" transform="translate(-56.718 1.078)" fill="#fcfcfc"/>
      <path id="Caminho_83683" data-name="Caminho 83683" d="M151.053,179.559l-11.173-.749-5.245,10.638.482-11.842-10.156-4.7,11.28.107,5.125-10-.268,11.227Z" transform="translate(-106.935 -23.858)" fill="#fcfcfc"/>
      <path id="Caminho_83684" data-name="Caminho 83684" d="M203.834,262.806c-20.272,13.662-38.163,31.1-51.223,51.932a139.726,139.726,0,0,0-21.932,69.917,128.124,128.124,0,0,0,4.563,37.307A133.5,133.5,0,0,0,150.71,457.02a153.282,153.282,0,0,0,24.9,30.161,193.881,193.881,0,0,0,31.74,24.086,195.367,195.367,0,0,1-34.791-20.487,159.333,159.333,0,0,1-29.439-28.341,143.633,143.633,0,0,1-31.071-77.129c-2.516-28.515,3.506-57.78,15.977-83.887s31.111-49.3,53.137-68.244Z" transform="translate(-111.489 -0.136)" fill="#3d0e87" opacity="0.6"/>
      <path id="Caminho_83685" data-name="Caminho 83685" d="M159.52,281.049l-7.975,1.472-1.78,8.4-1.78-8.4-7.975-1.485,7.948-1.94,1.806-7.935,1.82,7.935Z" transform="translate(-101.846 12.706)" fill="#fff"/>
      <path id="Caminho_83686" data-name="Caminho 83686" d="M135.416,397.573l-4.456.83-.99,4.7-1-4.7-4.456-.83,4.443-1.084,1.017-4.429,1.017,4.429Z" transform="translate(-107.087 53.584)" fill="#fff"/>
      <path id="Caminho_83687" data-name="Caminho 83687" d="M133.626,367.106l-4.456.816-.99,4.71-.99-4.71-4.469-.816,4.443-1.084,1.017-4.443,1.017,4.443Z" transform="translate(-107.692 43.278)" fill="#fff"/>
      <path id="Caminho_83688" data-name="Caminho 83688" d="M152.946,260.353l-4.456.83-1,4.7-.99-4.7-4.456-.83,4.443-1.084,1-4.429,1.017,4.429Z" transform="translate(-101.16 7.188)" fill="#fff"/>
      <path id="Caminho_83689" data-name="Caminho 83689" d="M140.789,403.78a1.338,1.338,0,1,0,.987,1.291A1.338,1.338,0,0,0,140.789,403.78Z" transform="translate(-101.916 57.547)" fill="#fff"/>
      <path id="Caminho_83690" data-name="Caminho 83690" d="M168.349,254.26a1.338,1.338,0,1,0,.987,1.291,1.338,1.338,0,0,0-.987-1.291Z" transform="translate(-92.598 6.991)" fill="#fff"/>
      <path id="Caminho_83691" data-name="Caminho 83691" d="M116.369,340.37a1.338,1.338,0,1,0,.987,1.291A1.338,1.338,0,0,0,116.369,340.37Z" transform="translate(-110.173 36.107)" fill="#fff"/>
      <path id="Caminho_83692" data-name="Caminho 83692" d="M139.025,398.75a.923.923,0,1,0,.812.917A.923.923,0,0,0,139.025,398.75Z" transform="translate(-102.454 55.846)" fill="#fff"/>
      <path id="Caminho_83693" data-name="Caminho 83693" d="M116,306.63a.91.91,0,1,0,.91.91.91.91,0,0,0-.91-.91Z" transform="translate(-110.272 24.699)" fill="#fff"/>
      <path id="Caminho_83694" data-name="Caminho 83694" d="M123.3,376.49a2.489,2.489,0,1,0,2.306,2.482,2.489,2.489,0,0,0-2.306-2.482Z" transform="translate(-108.275 48.319)" fill="#fff"/>
      <path id="Caminho_83695" data-name="Caminho 83695" d="M125.136,300.35a2.476,2.476,0,1,0,2.476,2.476,2.476,2.476,0,0,0-2.476-2.476Z" transform="translate(-107.712 22.575)" fill="#fff"/>
    </g>
  </g>
</svg>
