<svg xmlns="http://www.w3.org/2000/svg" xmlns:xlink="http://www.w3.org/1999/xlink" width="1080" zoomAndPan="magnify" viewBox="0 0 810 809.999993" height="1080" preserveAspectRatio="xMidYMid meet" version="1.0"><defs><clipPath id="d60f44d339"><path d="M 182.058594 16 L 616 16 L 616 794 L 182.058594 794 Z M 182.058594 16 " clip-rule="nonzero"/></clipPath></defs><g clip-path="url(#d60f44d339)"><path fill="#747bff" d="M 611.699219 505.261719 C 609.582031 498.535156 607.015625 491.980469 604 485.601562 C 600.988281 479.21875 597.558594 473.074219 593.707031 467.164062 C 589.855469 461.25 585.621094 455.628906 581.007812 450.292969 C 576.390625 444.957031 571.433594 439.960938 566.132812 435.300781 C 543.132812 414.582031 517.820312 397.230469 490.203125 383.242188 C 469.558594 372.425781 427.46875 355.621094 401.296875 345.535156 C 400.5625 345.25 399.816406 345.003906 399.054688 344.792969 C 398.296875 344.585938 397.527344 344.410156 396.753906 344.273438 C 395.976562 344.140625 395.195312 344.039062 394.410156 343.980469 C 393.625 343.917969 392.839844 343.894531 392.050781 343.910156 C 391.261719 343.925781 390.476562 343.980469 389.695312 344.070312 C 388.914062 344.164062 388.136719 344.289062 387.367188 344.457031 C 386.59375 344.625 385.835938 344.824219 385.085938 345.066406 C 384.332031 345.304688 383.597656 345.582031 382.871094 345.890625 C 382.148438 346.203125 381.441406 346.546875 380.75 346.925781 C 380.058594 347.304688 379.386719 347.714844 378.738281 348.160156 C 378.085938 348.605469 377.457031 349.078125 376.851562 349.582031 C 376.246094 350.085938 375.667969 350.621094 375.113281 351.179688 C 374.5625 351.742188 374.035156 352.328125 373.539062 352.9375 C 373.042969 353.550781 372.574219 354.183594 372.136719 354.839844 C 371.703125 355.496094 371.300781 356.171875 370.929688 356.867188 C 370.558594 357.5625 370.222656 358.273438 369.917969 359.003906 C 369.824219 359.203125 369.753906 359.402344 369.660156 359.601562 C 369.34375 360.367188 369.066406 361.144531 368.828125 361.9375 C 368.585938 362.730469 368.390625 363.53125 368.230469 364.34375 C 368.074219 365.15625 367.957031 365.976562 367.882812 366.796875 C 367.808594 367.621094 367.777344 368.449219 367.785156 369.277344 C 367.796875 370.101562 367.847656 370.925781 367.9375 371.75 C 368.03125 372.570312 368.164062 373.386719 368.339844 374.195312 C 368.515625 375.003906 368.730469 375.800781 368.988281 376.589844 C 369.242188 377.375 369.539062 378.148438 369.871094 378.90625 C 370.207031 379.660156 370.578125 380.398438 370.984375 381.117188 C 371.394531 381.839844 371.839844 382.535156 372.316406 383.210938 C 372.796875 383.882812 373.308594 384.53125 373.855469 385.15625 C 374.398438 385.777344 374.976562 386.371094 375.578125 386.933594 C 376.183594 387.5 376.816406 388.03125 377.476562 388.53125 C 378.136719 389.03125 378.816406 389.496094 379.523438 389.929688 C 380.230469 390.359375 380.957031 390.753906 381.703125 391.109375 C 382.449219 391.46875 383.210938 391.789062 383.988281 392.066406 C 398.210938 397.171875 414.933594 403.320312 423.734375 406.984375 C 450.453125 418.070312 475.984375 431.421875 500.324219 447.050781 C 506.121094 450.878906 511.765625 454.933594 517.304688 459.128906 C 528.828125 468.144531 539.21875 478.3125 548.484375 489.636719 C 553.066406 495.878906 557.019531 502.496094 560.335938 509.492188 C 562.570312 515.222656 564.222656 521.113281 565.296875 527.167969 C 565.8125 532.691406 565.8125 538.214844 565.296875 543.738281 C 564.0625 550.835938 562.121094 557.738281 559.476562 564.441406 C 554.945312 574.199219 549.464844 583.394531 543.039062 592.027344 C 527.394531 611.179688 509.71875 628.230469 490.015625 643.179688 C 449.230469 673.246094 406.027344 699.296875 360.398438 721.328125 C 352.644531 725.230469 344.820312 729.035156 336.832031 732.511719 C 325.996094 737.0625 314.796875 740.394531 303.238281 742.503906 C 298.53125 743 293.816406 743.054688 289.097656 742.667969 C 287 742.234375 284.9375 741.667969 282.910156 740.972656 C 281.640625 740.3125 280.40625 739.585938 279.210938 738.792969 C 278.058594 737.75 276.957031 736.648438 275.914062 735.492188 C 274.199219 732.96875 272.6875 730.332031 271.375 727.574219 C 269.339844 721.890625 267.847656 716.0625 266.898438 710.097656 C 265.292969 694.5 265.292969 678.902344 266.898438 663.304688 C 267.289062 659.195312 267.792969 655.058594 268.3125 650.96875 C 270.667969 634 273.933594 617.183594 277.738281 600.5 C 282.335938 580.464844 287.695312 560.714844 293.527344 541.0625 C 297.023438 529.277344 300.683594 517.578125 304.511719 505.957031 C 307.582031 496.53125 310.722656 487.148438 313.9375 477.804688 C 321.605469 455.683594 329.667969 433.710938 338.128906 411.886719 C 342.136719 401.472656 346.257812 391.113281 350.40625 380.753906 C 355.121094 369.027344 359.90625 357.332031 364.769531 345.675781 C 365.242188 344.496094 368.503906 336.976562 369.625 334.363281 C 380.621094 308.484375 391.980469 282.761719 403.703125 257.191406 C 405.660156 252.925781 407.695312 248.683594 409.664062 244.417969 C 411.445312 240.574219 413.339844 236.78125 415.132812 232.941406 C 416.921875 229.097656 418.667969 225.457031 420.421875 221.699219 C 423.308594 226.207031 426.480469 230.511719 429.933594 234.601562 C 433.390625 238.695312 437.097656 242.542969 441.058594 246.148438 C 445.019531 249.753906 449.199219 253.082031 453.601562 256.136719 C 458 259.1875 462.582031 261.941406 467.34375 264.390625 C 469.488281 260.234375 471.386719 255.964844 473.042969 251.589844 C 474.699219 247.214844 476.101562 242.761719 477.25 238.226562 C 478.394531 233.691406 479.28125 229.105469 479.902344 224.46875 C 480.523438 219.832031 480.882812 215.175781 480.972656 210.5 C 481.0625 205.820312 480.886719 201.152344 480.441406 196.496094 C 480 191.839844 479.289062 187.222656 478.320312 182.648438 C 477.347656 178.070312 476.117188 173.566406 474.632812 169.128906 C 473.144531 164.695312 471.410156 160.359375 469.429688 156.121094 C 471.523438 153.824219 473.539062 151.460938 475.476562 149.03125 C 477.417969 146.601562 479.273438 144.109375 481.050781 141.558594 C 482.824219 139.007812 484.515625 136.402344 486.121094 133.738281 C 487.722656 131.074219 489.238281 128.363281 490.667969 125.601562 C 492.09375 122.839844 493.429688 120.035156 494.671875 117.183594 C 495.914062 114.335938 497.0625 111.449219 498.113281 108.523438 C 499.167969 105.601562 500.125 102.644531 500.984375 99.65625 C 501.84375 96.667969 502.601562 93.65625 503.265625 90.621094 C 503.925781 87.582031 504.488281 84.527344 504.949219 81.453125 C 505.410156 78.378906 505.769531 75.292969 506.03125 72.195312 C 506.289062 69.097656 506.445312 65.996094 506.503906 62.886719 C 506.558594 59.777344 506.511719 56.671875 506.363281 53.566406 C 506.214844 50.460938 505.964844 47.367188 505.613281 44.277344 C 505.261719 41.1875 504.808594 38.113281 504.257812 35.054688 C 503.703125 31.996094 503.050781 28.960938 502.296875 25.941406 C 501.546875 22.925781 500.695312 19.9375 499.746094 16.980469 C 496.789062 17.925781 493.863281 18.96875 490.976562 20.109375 C 488.085938 21.246094 485.234375 22.480469 482.425781 23.804688 C 479.617188 25.128906 476.855469 26.546875 474.136719 28.054688 C 471.421875 29.558594 468.757812 31.15625 466.144531 32.835938 C 463.53125 34.519531 460.980469 36.285156 458.484375 38.132812 C 455.988281 39.980469 453.554688 41.910156 451.183594 43.917969 C 448.8125 45.929688 446.511719 48.011719 444.28125 50.171875 C 442.046875 52.332031 439.886719 54.5625 437.800781 56.863281 C 435.714844 59.164062 433.703125 61.53125 431.773438 63.964844 C 429.84375 66.398438 427.992188 68.890625 426.222656 71.445312 C 424.457031 74 422.773438 76.609375 421.175781 79.273438 C 419.582031 81.9375 418.074219 84.652344 416.652344 87.417969 C 415.234375 90.179688 413.910156 92.988281 412.671875 95.839844 C 411.4375 98.6875 410.300781 101.578125 409.253906 104.503906 C 408.207031 107.425781 407.261719 110.382812 406.410156 113.371094 C 405.558594 116.359375 404.804688 119.371094 404.148438 122.40625 C 399.550781 123.257812 395.015625 124.367188 390.542969 125.738281 C 386.066406 127.105469 381.6875 128.722656 377.398438 130.59375 C 373.113281 132.464844 368.945312 134.570312 364.898438 136.917969 C 360.851562 139.261719 356.949219 141.832031 353.195312 144.621094 C 349.441406 147.414062 345.859375 150.410156 342.449219 153.609375 C 339.039062 156.8125 335.820312 160.195312 332.796875 163.765625 C 329.773438 167.335938 326.960938 171.0625 324.363281 174.953125 C 321.765625 178.84375 319.398438 182.871094 317.261719 187.03125 C 320.695312 188.800781 324.203125 190.40625 327.789062 191.84375 C 331.375 193.285156 335.023438 194.550781 338.726562 195.644531 C 342.433594 196.738281 346.183594 197.65625 349.972656 198.398438 C 353.765625 199.136719 357.585938 199.695312 361.429688 200.074219 C 365.277344 200.453125 369.128906 200.648438 372.992188 200.664062 C 376.859375 200.675781 380.714844 200.507812 384.5625 200.15625 C 388.410156 199.804688 392.230469 199.273438 396.03125 198.5625 C 399.828125 197.847656 403.582031 196.960938 407.296875 195.890625 C 404.660156 198.070312 401.882812 200.042969 398.957031 201.808594 C 396.03125 203.578125 392.992188 205.121094 389.839844 206.441406 C 386.6875 207.761719 383.453125 208.84375 380.140625 209.691406 C 376.828125 210.535156 373.472656 211.132812 370.074219 211.480469 C 364.984375 222.40625 359.902344 233.351562 354.917969 244.335938 C 353.589844 247.28125 352.210938 250.226562 350.878906 253.136719 C 340.851562 275.433594 331.1875 297.914062 321.691406 320.386719 C 318.378906 319.527344 315.070312 318.632812 311.757812 317.78125 C 310.792969 317.546875 309.835938 317.277344 308.871094 317.027344 C 285.304688 311.136719 261.5625 306.070312 237.59375 302.40625 C 227.496094 300.875 217.351562 299.433594 207.15625 298.632812 C 205.515625 298.640625 203.890625 298.804688 202.28125 299.128906 C 200.671875 299.453125 199.109375 299.929688 197.59375 300.558594 C 196.078125 301.1875 194.636719 301.957031 193.273438 302.871094 C 191.910156 303.78125 190.644531 304.816406 189.484375 305.976562 C 188.324219 307.140625 187.292969 308.40625 186.382812 309.769531 C 185.46875 311.136719 184.699219 312.578125 184.066406 314.09375 C 183.433594 315.605469 182.953125 317.167969 182.621094 318.777344 C 182.292969 320.382812 182.121094 322.007812 182.105469 323.652344 C 182.125 324.464844 182.183594 325.277344 182.28125 326.085938 C 182.378906 326.894531 182.515625 327.699219 182.6875 328.492188 C 182.863281 329.289062 183.074219 330.074219 183.320312 330.851562 C 183.570312 331.628906 183.855469 332.390625 184.175781 333.136719 C 184.496094 333.886719 184.851562 334.617188 185.242188 335.332031 C 185.632812 336.046875 186.054688 336.742188 186.511719 337.417969 C 186.96875 338.09375 187.457031 338.746094 187.976562 339.371094 C 188.496094 340 189.042969 340.601562 189.617188 341.179688 C 190.195312 341.753906 190.796875 342.300781 191.425781 342.820312 C 192.054688 343.339844 192.703125 343.828125 193.378906 344.285156 C 194.054688 344.742188 194.75 345.164062 195.464844 345.554688 C 196.179688 345.945312 196.910156 346.300781 197.660156 346.621094 C 198.40625 346.945312 199.171875 347.226562 199.945312 347.476562 C 200.722656 347.726562 201.507812 347.9375 202.304688 348.109375 C 203.097656 348.285156 203.902344 348.417969 204.710938 348.515625 C 205.519531 348.613281 206.332031 348.671875 207.144531 348.691406 C 211.515625 349.046875 215.851562 349.574219 220.214844 350.140625 C 242.355469 353.3125 264.316406 357.824219 286.070312 363.007812 C 288.191406 363.515625 290.3125 364.09375 292.433594 364.601562 C 295.765625 365.402344 299.078125 366.25 302.390625 367.085938 C 290.417969 396.863281 278.929688 426.816406 268.277344 457.089844 C 262.609375 473.269531 257.128906 489.519531 251.96875 505.863281 C 247.058594 521.269531 242.484375 536.765625 238.242188 552.351562 C 230.476562 579.949219 224.445312 607.917969 220.144531 636.261719 C 215.871094 660.488281 214.691406 684.867188 216.609375 709.390625 C 216.914062 714.933594 217.644531 720.421875 218.800781 725.847656 C 219.960938 731.277344 221.53125 736.585938 223.519531 741.769531 C 225.503906 746.953125 227.875 751.949219 230.640625 756.765625 C 233.402344 761.578125 236.523438 766.152344 239.996094 770.480469 C 241.777344 772.351562 243.652344 774.125 245.621094 775.800781 C 247.589844 777.472656 249.640625 779.039062 251.777344 780.496094 C 253.914062 781.949219 256.121094 783.289062 258.398438 784.507812 C 260.675781 785.726562 263.011719 786.824219 265.40625 787.796875 C 267.800781 788.765625 270.242188 789.609375 272.726562 790.320312 C 275.207031 791.03125 277.722656 791.609375 280.269531 792.054688 C 282.816406 792.5 285.378906 792.808594 287.957031 792.980469 C 290.535156 793.148438 293.113281 793.183594 295.695312 793.082031 C 309.109375 792.226562 322.273438 789.941406 335.191406 786.226562 C 348.105469 782.507812 360.472656 777.449219 372.289062 771.046875 C 400.832031 757.796875 428.519531 742.949219 455.347656 726.503906 C 482.175781 710.058594 507.972656 692.121094 532.730469 672.699219 C 546.503906 661.6875 559.261719 649.601562 571 636.4375 C 582.894531 623.421875 592.917969 609.097656 601.070312 593.464844 C 602.855469 590.121094 604.484375 586.699219 605.953125 583.207031 C 607.421875 579.710938 608.726562 576.15625 609.867188 572.539062 C 611.003906 568.925781 611.976562 565.265625 612.777344 561.558594 C 613.578125 557.851562 614.203125 554.117188 614.660156 550.355469 C 615.113281 546.59375 615.394531 542.816406 615.5 539.027344 C 615.605469 535.238281 615.535156 531.449219 615.289062 527.667969 C 615.042969 523.882812 614.625 520.121094 614.03125 516.375 C 613.4375 512.632812 612.671875 508.925781 611.734375 505.25 Z M 611.699219 505.261719 " fill-opacity="1" fill-rule="nonzero"/></g></svg>